<svg xmlns="http://www.w3.org/2000/svg" xmlns:xlink="http://www.w3.org/1999/xlink" shape-rendering="crispEdges"><defs><path id="a" d="M44.055 28.075a2.07 2.07 0 0 0-2.799.94c-2.902 5.948-9.018 9.914-15.549 9.914-8.5 0-15.549-6.157-17-14.298l4.458-.417-7.05-7.828L0 25.362l4.561-.418C6.219 35.172 15.031 43 25.707 43c8.19 0 15.756-4.801 19.28-12.211.519-1.044.104-2.296-.933-2.714h.001zm2.695-10.124C45.092 7.724 36.28 0 25.707 0 17.518 0 10.263 4.592 6.531 11.898a2.098 2.098 0 0 0 .933 2.818 2.07 2.07 0 0 0 2.799-.94c2.902-5.949 8.914-9.602 15.444-9.602 8.397 0 15.445 6.158 17 14.195l-3.628.313 6.53 7.41L51 17.638l-4.25.313z"/><path id="c" d="M9.997.889L.745 11.679c-.617.72-.103 1.953.925 1.953h5.346l-3.804 9.352c-.205.514.411.822.823.514l10.178-12.23c.72-.822.102-2.158-1.028-2.158h-4.73l2.879-7.4C11.54.889 10.512.273 9.998.889z"/><path id="e" d="M14.26 31.004c-2.607 0-4.991-.575-7.153-1.725-2.162-1.15-3.887-2.875-5.175-5.175C.644 21.804 0 19.014 0 15.732c0-3.22.667-6.018 2.001-8.395 1.334-2.377 3.097-4.194 5.29-5.451C9.484.629 11.868 0 14.444 0c1.84 0 3.557.368 5.152 1.104 1.595.736 2.975 1.687 4.14 2.852l-4.14 5.06c-.828-.736-1.625-1.288-2.392-1.656-.767-.368-1.625-.552-2.576-.552-1.165 0-2.246.353-3.243 1.058-.997.705-1.794 1.71-2.392 3.013-.598 1.303-.897 2.829-.897 4.577 0 2.76.583 4.907 1.748 6.44 1.165 1.533 2.73 2.3 4.692 2.3 2.024 0 3.833-.859 5.428-2.576l4.14 4.968c-1.257 1.472-2.722 2.576-4.393 3.312-1.671.736-3.488 1.104-5.451 1.104zM28.244.552h7.912v29.9h-7.912V.552zm30.636 29.9l-5.152-10.028h-3.036v10.028H42.78V.552h11.316c3.588 0 6.478.744 8.671 2.231 2.193 1.487 3.289 3.964 3.289 7.429 0 2.055-.43 3.803-1.288 5.244-.859 1.441-2.04 2.576-3.542 3.404l6.486 11.592H58.88zm-8.188-16.284h2.852c1.564 0 2.752-.337 3.565-1.012.813-.675 1.219-1.656 1.219-2.944 0-1.257-.391-2.139-1.173-2.645-.782-.506-1.986-.759-3.611-.759h-2.852v7.36zM71.76.552h19.32v6.624H79.672v4.692h9.752v6.624h-9.752v5.336H91.54v6.624H71.76V.552zm39.376 30.452c-2.852 0-5.42-.575-7.705-1.725-2.285-1.15-4.086-2.875-5.405-5.175s-1.978-5.09-1.978-8.372c0-3.22.675-6.018 2.024-8.395 1.35-2.377 3.159-4.194 5.428-5.451C105.77.629 108.253 0 110.952 0c2.055 0 3.902.368 5.543 1.104 1.64.736 3.044 1.687 4.209 2.852l-4.14 5.06c-.828-.736-1.648-1.288-2.461-1.656-.813-.368-1.771-.552-2.875-.552-2.085 0-3.787.774-5.106 2.323s-1.978 3.657-1.978 6.325c0 2.852.644 5.022 1.932 6.509 1.288 1.487 3.25 2.231 5.888 2.231.981 0 1.748-.184 2.3-.552v-4.14h-4.416v-6.44h11.408v14.26c-1.104 1.073-2.56 1.955-4.37 2.645s-3.726 1.035-5.75 1.035z"/></defs><g fill="none" fill-rule="evenodd"><mask id="b" fill="#fff"><use xlink:href="#a"/></mask><use fill="#0C4D6C" xlink:href="#a"/><g fill="#F7F7F7" mask="url(#b)"><path d="M0 0h51v43H0z"/></g><g transform="translate(18 9)"><mask id="d" fill="#fff"><use xlink:href="#c"/></mask><g fill="#EEA00A" mask="url(#d)"><path d="M0 0h15v24H0z"/></g></g><g transform="translate(61 6)"><mask id="f" fill="#fff"><use xlink:href="#e"/></mask><use fill="#F7F7F7" xlink:href="#e"/><g fill="#F7F7F7" mask="url(#f)"><path d="M0-1h122v33H0z"/></g></g></g></svg>