<svg xmlns="http://www.w3.org/2000/svg" xmlns:xlink="http://www.w3.org/1999/xlink" width="331" height="228" viewBox="0 0 331 228">
  <defs>
    <path id="logo_large_on_dark-a" d="M213,37 L105,37 L105,130 L213,130 L213,230 L-1,230 L-1,0 L213,0 L213,37 Z"/>
    <path id="logo_large_on_dark-c" d="M212.637425,77.8854279 C212.930766,78.2926959 213.153007,78.9126991 213.304208,79.6639983 C213.596755,81.1176302 213.577545,82.7212068 213.157902,83.2606055 C212.692151,83.8578347 212.554093,84.4229215 212.426289,85.8146262 C212.289051,87.1275831 212.167454,87.6886306 211.930751,88.2378613 C211.807816,88.5192721 210.921378,90.6516533 210.703001,91.1706542 C209.978355,92.8928728 209.311966,94.4237063 208.641101,95.8839157 C208.169441,96.9105357 207.715341,97.8576414 207.279526,98.7183023 C205.882722,101.47676 204.741516,103.234454 203.821113,103.83921 C203.772317,103.871761 202.735093,105.071187 202.476974,105.351296 C202.20295,105.648664 201.947982,105.907717 201.703298,106.133356 C201.301282,106.504082 200.93659,106.776112 200.600669,106.938218 C200.19201,108.901057 198.975173,110.177359 196.578789,111.746774 C196.453012,111.829147 195.206275,112.626596 194.875561,112.85032 C191.886789,114.881439 188.99574,117.893205 185.819384,121.943455 C182.083972,124.646914 179.788735,130.378413 178.694111,137.924308 C178.282705,140.76038 178.073527,143.693197 178.057648,146.266216 C178.045225,148.279247 178.175897,149.929636 178.282849,150.094962 C178.334973,150.176177 178.567466,150.27172 179.128039,150.418029 C180.343544,150.735182 180.777312,150.969595 180.71457,151.756677 C180.568986,153.516328 179.934391,160.348367 179.851587,160.725293 C179.594744,161.900128 179.596713,162.788172 179.884769,163.795371 C180.140043,164.667881 179.981716,165.677977 179.499774,166.834997 C179.22293,167.499631 178.850741,168.189276 178.363843,168.977226 C178.155363,169.314609 178.012818,169.535485 177.627838,170.124204 C175.458571,172.710842 173.572958,174.190028 171.627825,174.215316 C170.478193,174.229771 169.384455,174.480564 168.572132,174.945912 C168.242284,175.137396 167.954032,175.556341 167.643558,176.25019 C167.572081,176.409926 167.256687,177.171552 167.171369,177.353867 C166.982981,177.761874 166.324895,178.358662 165.186935,179.248202 C164.259015,179.96217 162.760986,181.06635 162.783698,181.049005 C162.511223,181.257079 162.238186,181.431392 161.921651,181.607907 C161.784589,181.68434 161.327568,181.925365 161.237188,181.976136 C160.581638,182.344391 160.46101,182.610949 160.664922,183.699114 C160.744994,184.117712 160.825308,184.335472 161.281171,185.455579 C161.963139,187.131251 162.182528,188.122558 161.910353,189.309402 C161.619481,190.571623 161.53484,191.346536 161.419128,193.176476 C161.244424,195.939362 160.803949,196.975592 158.786208,198.20425 C157.572104,198.943551 155.769316,199.666524 153.068542,200.499198 C153.120362,200.646953 153.098956,200.865392 153.07236,201.263209 C152.887195,204.032879 152.690558,205.280892 151.882158,207.088943 C151.016356,209.025376 149.633402,210.635689 147.617185,211.844993 C146.823423,212.318393 146.525848,212.913369 146.129634,214.469304 C146.017337,214.910295 145.993898,215.000604 145.937766,215.200713 C145.804372,215.676259 145.668604,216.064939 145.497306,216.432874 C144.872236,217.778401 143.951138,218.487233 141.731988,219.700515 C140.470561,220.390081 139.954133,220.706262 139.432424,221.146155 C138.749658,221.75894 138.49976,222.006026 138.19406,222.321584 C138.121635,222.396346 137.588019,222.953631 137.432105,223.112767 C135.950785,224.624693 134.784633,225.315532 132.793714,225.565357 C132.314319,225.627084 131.890899,225.647482 131.118958,225.660677 C129.94585,225.680237 129.480447,225.708864 128.919093,225.819579 C128.637965,226.028207 128.455599,226.192962 128.406743,226.233392 C128.03381,226.535789 127.540125,226.524602 126.731016,226.356925 C125.791292,226.143586 125.712993,226.127387 125.613201,226.126471 C125.256412,226.123687 124.677264,226.190551 123.794984,226.331099 C123.261105,226.416146 121.038148,226.800374 121.003728,226.806195 C120.06442,226.965052 119.289761,227.086671 118.544096,227.18876 C115.032896,227.669476 112.681753,227.637843 111.367164,226.836314 C110.209499,226.124586 108.709667,222.771263 108.828774,221.176019 C108.988997,219.081306 108.194758,216.180335 106.769511,212.982134 C106.240115,211.794189 105.652338,210.636166 105.103777,209.669357 C104.879628,209.274308 104.674985,208.934946 104.516328,208.692457 C103.96435,208.001402 102.824019,207.119214 102.689854,207.08566 C101.278431,205.87656 100.92952,204.754053 100.600903,202.117622 C100.423298,200.765822 100.330987,200.258117 100.202496,199.781778 C100.135024,199.534548 100.093183,199.363103 99.9842151,198.900194 C99.7834414,198.047279 99.6708955,197.653301 99.4712087,197.189096 C98.9945092,196.077397 98.7978876,194.994806 98.7733618,193.686387 C98.764571,193.217406 98.7730679,192.859099 98.8050702,192.001106 C98.8403694,191.054722 98.8485994,190.607096 98.8296641,190.049461 C98.7886217,188.869477 98.2820746,188.098093 97.1401933,187.313891 C96.1181848,186.614376 95.3767795,185.258314 94.8248368,183.41649 C94.3784589,181.926934 93.9425745,179.314304 94.0542275,179.496974 C93.7855434,179.057343 93.4932905,178.631432 93.1318221,178.142957 C92.934611,177.876453 92.2348429,176.961069 92.0985419,176.778304 C90.7354041,174.950474 90.1182973,173.594659 89.9839858,171.58727 C89.8923076,170.223752 90.1168962,168.701341 90.6214207,166.786828 C90.7885172,166.152749 90.9702616,165.528284 91.2475317,164.617071 C91.9111748,162.436091 91.9236614,162.394073 92.1091713,161.663628 C92.4294245,160.408112 92.9828012,159.483214 94.2582524,157.785404 C95.546969,156.071753 96.0204174,155.326312 96.3688563,154.336482 C96.577193,153.746622 96.4502991,152.913236 96.0181198,151.893817 C95.7552514,151.273766 95.3911404,150.609809 94.9400818,149.901777 C94.5036484,149.216703 93.3786485,147.660863 93.3247119,147.552776 C92.4177313,145.725927 92.7101141,144.901467 93.9466216,144.214768 C94.4055529,143.960092 94.5211848,143.856878 94.5564797,143.686912 C94.6217713,143.372493 94.4251113,142.783848 93.8381898,141.842117 C93.360178,141.072264 92.7186741,139.774364 91.5453207,137.273402 C89.7861519,133.520766 89.3920203,132.708036 89.0310689,132.172257 C88.9368807,132.030915 88.5080732,131.608349 87.7406134,130.901421 C87.4755138,130.65723 85.7618977,129.09795 85.2373805,128.613753 C82.8080095,126.350825 81.6583234,125.139821 81.3018702,124.401863 C81.0296552,123.249127 81.2792963,121.536784 82.2755013,115.938714 C83.1921435,110.787041 83.5054808,108.534376 83.3112302,108.107 C82.0642445,105.369468 80.861328,103.932441 79.3665129,104.237672 C79.1272811,104.285839 78.8572729,104.347004 78.4736649,104.438577 C78.452674,104.443588 77.6685452,104.632611 77.4259281,104.689701 C76.5754646,104.889823 75.9102097,105.02684 75.2568553,105.126442 C71.3165432,105.727132 69.0224014,104.607406 69.1567686,100.839336 C69.1809027,100.141929 68.8008863,99.8087956 67.7571018,99.5416667 C65.4232239,98.8515956 63.3647679,98.6951495 61.1006194,98.9844312 C58.517125,99.3145145 56.2162771,100.045096 51.9268697,101.717331 C49.2097589,102.776602 48.7900529,102.936928 47.6662964,103.324637 C45.3385748,103.321108 43.2724186,102.852556 42.2672307,101.889295 C42.0490883,101.952064 41.8006943,102.039692 41.3671987,102.201815 C41.252802,102.244598 40.8167864,102.408737 40.7494592,102.434005 C40.4791054,102.535469 40.2536826,102.619174 40.0242913,102.702909 C39.4242106,102.921959 38.8626332,103.116757 38.2885534,103.301984 C35.449887,104.217878 32.741913,104.755651 30.0362616,104.790248 C24.8177698,104.858004 19.6231147,101.149778 14.6323825,94.9401331 C12.9263517,92.8174294 11.3692439,90.5516402 9.96501483,88.2538141 C9.48507355,87.4684569 9.06463044,86.7476444 8.67092112,86.0472726 C8.5541539,85.8395547 8.55895744,85.8482057 8.32606275,85.4276622 C8.07195657,84.9555417 7.91960347,84.7017577 7.7264644,84.4129372 C7.59382502,84.2145881 7.44857534,84.0089346 7.25395061,83.7413767 C6.04212027,82.0754286 5.91058329,81.8709271 5.86296328,81.3021142 C5.78280937,80.3660723 5.33980579,79.9578005 4.02755168,79.3423266 C1.71893755,78.2615732 1.06851677,77.2475238 1.96493578,74.7049973 C2.26962891,73.2170678 1.98814812,72.1250971 1.37848321,70.9534467 C1.24264898,70.6924012 0.500021217,69.4938914 0.500022486,69.2813641 C0.495889285,67.4470541 1.03306937,66.3468704 2.04915792,65.5655381 C2.25833417,65.4046897 2.90523556,64.9847085 2.86411657,65.0131236 C3.40005242,63.7588772 3.66441498,63.0979761 4.3110002,61.7179112 C5.024886,60.1935789 5.29185989,59.4855258 5.43217867,58.5736152 C5.36796458,57.8429549 5.35854388,57.5240513 5.33436921,56.8862268 C5.30630451,56.1457675 5.29773718,55.8560812 5.29673931,55.4628367 C5.29440519,54.5429998 5.3581753,53.7670631 5.52148701,52.9758595 C5.79597584,51.6212311 5.71415348,51.0945036 5.02399719,50.0364457 C4.06181621,48.5662598 4.0531474,46.8850257 4.81791179,45.0045624 C5.35603267,43.6813881 6.20926516,42.3600118 7.54500929,40.628449 C7.85079665,40.2320483 8.93179462,38.8640007 8.84250169,38.9777777 C9.3239039,38.3643756 9.64593538,37.9354408 9.9095308,37.5480347 C10.3266993,36.9363164 10.5969902,36.7187442 11.2900434,36.3031381 C11.7399807,36.0333222 11.9061236,35.8421755 12.1075694,35.2281238 C12.7654983,33.2264912 13.3490167,32.1840198 14.0710013,31.651146 C14.3839415,31.4201749 14.6493346,31.3116406 15.1454421,31.1685729 C15.833989,30.9700094 16.0963634,30.8554637 16.5268812,30.4962904 C16.7719741,30.29059 16.9183752,30.0238965 17.1840942,29.3614642 C17.5032923,28.567961 17.6939763,28.2081302 18.0328075,27.8582315 C18.8475015,27.0210409 19.6741695,26.6357315 21.5876703,26.0061174 C23.0317079,25.5300797 23.66311,25.2681869 24.2802798,24.8478424 C24.3137737,24.825087 24.9241661,24.5170207 25.2370713,24.3446407 C25.8601246,24.0013994 26.4611446,23.6221911 27.0229978,23.1979836 C27.8572735,22.568093 28.5255343,21.8965824 28.9743395,21.191647 C29.3389168,20.6344326 29.4057586,20.5282117 29.4652146,20.426247 C29.7032243,20.0180699 29.8042099,19.6942471 29.8042099,19.2623127 C29.8042099,17.6952294 30.1065888,16.7092246 30.824524,15.4855872 C30.8362688,15.4655696 31.4353374,14.4809042 31.6105673,14.1652298 C31.7707877,13.8765947 31.9119652,13.5964315 32.0426926,13.3027153 C33.0603597,11.0090441 34.5291971,10.1406649 38.0482235,9.07190784 C38.863703,8.82424003 38.9029335,8.81222134 39.2107078,8.71352002 C39.8862705,8.4953578 40.2063766,8.08069917 40.8026298,6.89938218 C41.0304883,6.44798233 41.1375843,6.24571356 41.2776599,6.01341785 C41.8243428,5.11037834 42.4036159,4.48622917 43.5935103,3.39618695 C44.1437512,2.8917179 44.3174564,2.72930381 44.4853291,2.56705733 C45.5924207,2.67062434 45.8976302,3.06495862 46.3609979,3.95247552 C46.9876751,5.15013721 47.3239185,5.45954062 48.0419862,5.41134403 C48.2566852,5.39620278 48.6065405,5.22750739 49.0968143,4.90329672 C49.5144434,4.61725001 49.6082433,4.55133029 49.7687556,4.4385924 C50.3269413,4.05902442 50.5176613,3.94536625 50.6909697,3.86613371 C51.3095108,3.58335117 51.890728,3.76786635 51.9455986,4.50719603 C52.009741,5.43000641 53.1379243,5.75711928 54.0759249,5.49382143 C54.2836784,5.4358597 55.0201437,5.23160026 55.1385963,5.19863753 C55.5670127,5.07941875 55.9048876,4.98425855 56.2315179,4.89037187 C57.4467658,4.54106074 58.3845226,4.24238744 59.1834835,3.93919394 C59.509145,3.81519487 59.7352267,3.5929563 60.192715,2.99823635 C60.7237725,2.30785911 60.9980356,2.02044235 61.4488451,1.77787353 C62.5143273,1.20075596 63.6466885,1.0699105 65.6918499,1.11165113 C67.5134864,1.15434426 68.1140527,1.14144872 68.7818683,1.02441642 C69.9770067,0.81304392 70.7607982,0.940735839 72.1024066,1.39823055 C73.4283211,1.842564 74.0414945,1.9092942 74.903271,1.6747474 C75.0909439,1.62328913 75.2872313,1.53541469 75.5483392,1.39105878 C76.9000426,0.611133848 77.5097124,0.406735571 78.3896179,0.529080096 C78.7998115,0.581382976 78.9778723,0.752297707 79.7098677,1.58622873 C80.0555474,1.97648484 80.214841,2.13772518 80.347426,2.23875107 C81.8965586,1.61102809 86.5318959,0.386830428 87.2762697,0.770456199 C87.5889945,0.931290358 87.9853803,0.978039223 88.4961728,0.927194938 C88.7648888,0.900446951 89.0292902,0.853476187 89.4457317,0.765036417 C90.1948016,0.605956269 90.2916092,0.587461895 90.5680512,0.56788347 L91.096969,0.986858103 C91.3415738,2.50028989 90.7118709,3.49937092 89.4361919,4.3084238 C89.2483108,4.42758053 88.6773023,4.74972053 88.4694715,4.86921044 C89.3805181,5.47398128 89.9189793,5.55743274 90.069936,5.44655458 L90.7520324,5.53185226 C91.624195,6.59187846 91.1022971,7.37246607 89.1584122,9.1803253 C88.1632623,10.1104559 87.7750306,10.5497781 87.6116523,10.9429703 C87.4565258,11.3163035 87.5611139,11.5706875 88.1334147,11.896117 C88.458576,12.0808562 88.831549,12.1943001 89.7040729,12.401507 C91.0275377,12.7161805 91.5805992,12.9113329 92.0710844,13.3429677 C92.8619207,14.039882 93.4819846,14.1484342 95.0877935,14.0645851 C96.172444,14.0079489 96.6916552,14.0206368 97.3681287,14.1837033 C97.6594797,14.2482454 98.9649331,14.4933301 99.3896298,14.5902911 C100.9084,14.9370362 101.858254,15.3921529 102.254737,16.2153981 C102.341802,16.3975797 102.422467,16.5863773 102.531712,16.8566147 C102.502167,16.7835302 102.73918,17.3746402 102.804115,17.531257 C103.118975,18.2906657 103.375297,18.7500671 103.65158,19.0008197 C103.765009,19.1049139 104.181724,19.2087246 105.03722,19.3299862 C105.015944,19.3269705 105.781695,19.4328036 106.01398,19.4672914 C106.415639,19.5269263 106.758598,19.5856648 107.088287,19.6538478 C107.936077,19.8291792 108.64259,20.0580712 109.245594,20.3807978 C109.404842,20.4659055 110.265545,20.9711019 110.524021,21.1135432 C110.993093,21.3720403 111.402274,21.5680911 111.784403,21.7084784 C112.653605,22.0278079 113.260548,22.0138638 113.620966,21.6551096 C113.909845,21.3675644 114.103443,21.0902853 114.219861,20.8116063 C114.494658,20.1538077 114.438175,19.8005326 113.891829,17.9376542 C114.199758,14.567996 121.103901,12.9297439 123.542347,14.5707679 C124.03888,14.9054478 124.726961,15.2528146 126.402205,16.0455405 C128.30331,16.9451328 129.188665,17.3895805 129.654247,17.7625266 C132.133851,16.4508362 138.183466,17.8050421 140.427879,19.6263147 C140.97979,19.1591769 141.173563,18.9086735 141.197022,18.87871 C141.580202,18.3892985 141.856636,18.1076807 142.216738,17.910451 C144.270499,16.7853996 146.900231,16.3539716 148.713419,17.3269188 C149.089127,17.9478988 149.107799,18.0104919 149.194216,18.3069443 C149.609697,19.2188495 149.769557,19.557866 149.901851,19.9093481 C150.172327,20.6279577 150.302383,21.2646142 150.469166,22.4731788 C150.533704,22.9469971 150.567308,23.1903606 150.605023,23.4446197 C150.742388,24.3877825 151.216937,25.2316946 152.228926,26.550575 C152.223847,26.5439558 152.756329,27.231821 152.90078,27.4238402 C153.044625,27.6147483 153.194065,27.8125868 153.380609,28.0591767 C153.714678,28.5005713 153.898121,28.7429557 154.048575,28.9420467 C157.07607,32.9482521 158.588113,35.1994266 159.924678,37.9789595 C159.971271,38.0752482 160.039006,38.2887944 160.20491,38.8388729 C160.192738,38.7985138 160.544424,39.9714136 160.654921,40.3342972 C161.039097,41.5868323 161.319402,42.3967632 161.34354,42.4224757 C166.935159,48.4969757 167.842833,49.7036417 167.713676,50.9550534 C167.56202,51.8010879 167.536368,52.0398666 167.544235,52.3631006 C167.5548,52.830121 167.703232,53.3976885 167.978822,54.0730355 C168.137106,54.4609182 168.329716,54.8686756 168.583827,55.3657972 C168.676906,55.5478874 169.135975,56.4232763 169.248119,56.6465327 C169.756119,57.6639972 170.35558,58.1358163 171.516356,58.4570091 C172.439827,58.7127819 173.074743,59.7108483 173.740797,61.4517035 C173.863615,61.77271 174.437662,63.4174038 174.563289,63.7017002 C174.601137,63.7875064 175.384256,65.6066247 175.589769,66.0468093 C176.56295,68.1312554 177.451017,68.949132 179.595662,69.4521258 C180.561917,69.6742589 180.962339,70.0471151 181.39512,70.8566948 C181.755772,71.5152606 182.019649,71.7498191 182.689279,71.9472571 C183.402843,72.159674 188.341891,77.0315803 189.352591,78.3534966 C189.245678,79.2604849 188.85753,79.4845202 188.028819,79.8225107 C188.265015,80.2316815 188.462919,80.296525 188.652618,80.3954189 C188.881402,80.5159061 189.109826,80.701275 189.464269,81.0308782 C190.081898,81.6128383 190.22769,81.7465878 190.374512,81.8755703 C191.846462,83.1686679 193.079323,83.5977172 194.521316,82.9517335 C197.668092,81.5416573 200.251216,80.9892711 205.982702,80.2061402 C206.416762,80.146853 206.616046,80.1195693 206.850551,80.087204 C207.259713,80.0304464 207.85614,79.7453229 208.603806,79.262125 C208.854585,79.1000534 209.119276,78.9180938 209.410207,78.7093275 C209.712492,78.4924132 210.781035,77.6940338 210.9888,77.5477686 C211.589818,77.1236326 212.212476,77.2954379 212.637425,77.8854279 Z M187.100759,79.875649 C187.095204,79.8680156 187.089594,79.8623748 187.084142,79.8591695 C187.085959,79.8602379 187.0878,79.8613064 187.089666,79.8623752 L187.100759,79.875649 Z M149.227113,18.6414486 C149.183456,18.6360364 149.115384,18.6373674 149.000906,18.6331858 L149.227113,18.6414486 Z M149.310676,18.6977162 C149.319195,18.7152764 149.327521,18.7381083 149.338642,18.7678775 C149.331875,18.7497626 149.324855,18.7301117 149.317458,18.7085683 L149.310676,18.6977162 Z M42.382108,101.861401 C42.3877078,101.861126 42.3932412,101.860712 42.3987095,101.860187 C42.396639,101.860386 42.3943753,101.860647 42.3919217,101.860972 L42.382108,101.861401 Z M153.068542,200.499198 C153.043257,200.506994 153.017894,200.514799 152.992451,200.522614 C153.048836,200.505378 153.086166,200.491472 153.110441,200.482799 L153.068542,200.499198 Z M209.993217,79.5217924 C209.689997,79.7393773 209.412333,79.9302545 209.146593,80.1019954 C208.284512,80.659137 207.580997,80.9954544 206.987611,81.0777666 C206.752133,81.1102665 206.552269,81.1376295 206.118081,81.1969341 C200.478665,81.9674849 197.962451,82.5055629 194.930193,83.8643229 C193.049012,84.7070542 191.448361,84.15001 189.714523,82.6268449 C189.557795,82.4891612 189.404215,82.3482666 189.214574,82.1698216 C188.492697,81.4929535 188.311718,81.3460866 188.188504,81.2811922 C188.086507,81.2280218 187.921822,81.1740625 187.58363,81.0794354 C187.005921,80.9180031 186.787823,80.8449775 186.577329,80.7212259 C186.11425,80.4489768 185.97805,79.9402547 186.392877,79.5225949 C186.52148,79.391113 186.696221,79.2940447 186.97449,79.1725238 C187.11784,79.1099227 187.742542,78.8592955 187.65117,78.8965618 C187.917127,78.7880909 188.126172,78.6895035 188.269635,78.6130567 C186.921998,77.0673224 182.800103,73.0236153 182.40522,72.9060629 C181.465037,72.6288558 180.999456,72.2150044 180.60427,71.4970608 C180.204557,70.7507317 180.015553,70.5747396 179.36947,70.4262062 C176.899472,69.8469113 175.77822,68.8142807 174.683659,66.4698517 C174.47058,66.0134605 173.680628,64.1784708 173.648475,64.1055774 C173.503679,63.7778988 172.91699,62.0969848 172.806823,61.8090438 C172.259602,60.37878 171.735842,59.5554471 171.249554,59.4207605 C169.823059,59.0260418 168.991783,58.371767 168.353978,57.0943173 C168.247191,56.8817284 167.790376,56.0106367 167.693413,55.8209471 C167.427484,55.300709 167.223671,54.8692329 167.052944,54.4508592 C166.735316,53.6724929 166.558288,52.9955817 166.544511,52.3865759 C166.534689,51.9830598 166.567623,51.6765023 166.643301,51.2840178 C166.801002,50.0574805 165.855889,48.8010433 160.611396,43.103606 C160.419755,42.8997833 160.210209,42.2943093 159.768739,40.8560693 C159.587051,40.2602772 159.234792,39.0854679 159.247507,39.1276268 C159.118776,38.7008011 159.034537,38.435223 159.023991,38.4134257 C157.723949,35.7098497 156.24018,33.5007704 153.250763,29.5449539 C153.100565,29.3462003 152.917392,29.1041728 152.583103,28.6624873 C152.396204,28.4154289 152.246404,28.2171126 152.101884,28.0253097 C151.962107,27.8395032 151.434266,27.1576332 151.435566,27.1593276 C150.32516,25.7121851 149.784763,24.7511718 149.615655,23.5900483 C149.577272,23.3312951 149.542867,23.082136 149.478554,22.6098838 C149.321345,21.4706938 149.203022,20.8914702 148.96595,20.2616106 C148.866104,19.9963373 148.748102,19.7397752 148.607372,19.4850386 C148.359176,19.0035287 148.316792,18.8686619 148.254868,18.6575966 C146.648939,17.4537632 144.429913,17.838285 142.697143,18.7874979 C142.491469,18.9001464 142.287924,19.1075083 141.984401,19.4951796 C141.598118,19.9885309 141.505775,20.0969365 141.413099,20.1931006 C140.912689,20.712342 140.352901,20.8545686 139.797232,20.4023843 C137.748515,18.7399131 131.618388,17.4395236 129.891899,18.7934806 L129.173145,18.6859248 C128.996381,18.4322948 128.115241,17.962446 125.988813,16.9562314 C124.239297,16.1283605 123.541141,15.7759073 122.983726,15.4001907 C121.119144,14.1453655 115.258821,15.5107283 114.825534,17.5675308 C115.474145,19.7795631 115.546278,20.2307226 115.142582,21.1970749 C114.97311,21.6027522 114.704353,21.9876767 114.326435,22.3638505 C113.623785,23.0632563 112.634105,23.0859936 111.439556,22.6471374 C111.002842,22.4866965 110.551023,22.2702161 110.041375,21.9893589 C109.764752,21.836917 108.911586,21.3361442 108.773989,21.2626074 C108.267521,20.9915471 107.647361,20.790631 106.885763,20.6331251 C106.576851,20.569239 106.251585,20.5135307 105.867118,20.4564484 C105.640734,20.4228368 104.880012,20.3176986 104.896878,20.3200893 C103.78707,20.1627804 103.308974,20.0436789 102.977485,19.7394592 C102.559062,19.359717 102.250028,18.8058399 101.880366,17.9142548 C101.812794,17.7512787 101.572928,17.1530527 101.604602,17.2314041 C101.137836,16.2009277 100.397202,15.8460572 99.1670505,15.5652057 C98.7651506,15.4734494 97.4743816,15.2311214 97.4397629,15.2239721 C96.5803099,15.0224395 96.131203,15.0114647 95.1399386,15.0632247 C93.2928038,15.1596748 92.4533455,15.0127142 91.4101917,14.093448 C91.0913874,13.8128952 90.625165,13.6483848 89.5680989,13.3970323 C88.5014656,13.1437235 88.0786145,13.0151087 87.6392686,12.7654958 C86.6487067,12.2022292 86.3288134,11.42417 86.6881991,10.5592592 C86.9269944,9.98456576 87.3704832,9.48271469 88.2858575,8.62655864 C89.5964264,7.40733205 90.0677741,6.85255252 90.0871207,6.47608126 C89.577914,6.54852976 88.9618875,6.38586329 88.406375,6.0732772 C87.5039739,5.56549744 87.0196879,4.76398713 87.8003492,4.11134679 C87.9616428,4.00402089 88.7155803,3.58128883 88.9006094,3.46394088 C89.7108473,2.95007704 90.1290628,2.41474428 90.146881,1.63984928 C89.2036442,1.83875046 88.9096378,1.89098052 88.5952233,1.92227734 C87.9093798,1.99054621 87.3290519,1.92210362 86.818537,1.65954595 C86.4757261,1.48287257 81.9980681,2.66554933 80.767226,3.23517847 C80.1976122,3.5035665 79.8154405,3.21236295 79.0705615,2.3732013 C78.5126437,1.73816758 78.2900182,1.5244767 78.2575349,1.52030265 C77.6510379,1.43599583 77.2233684,1.57937656 76.4174881,2.04562785 C75.7077416,2.44558359 75.4455134,2.56297853 75.1667941,2.63940003 C74.0810191,2.9349129 73.281984,2.84795582 72.1005543,2.453602 C70.5837337,1.93689951 69.9490738,1.83350348 68.9552554,2.00926986 C68.1980511,2.1419679 67.5587255,2.15569569 66.0650315,2.12032851 C63.7940543,2.07312641 62.7889733,2.18926452 61.9238999,2.65782862 C61.6377981,2.81177393 61.4313749,3.02809717 61.0185887,3.56471564 C60.4165909,4.34730113 60.0970993,4.66136176 59.5388015,4.87393926 C58.7085065,5.18902392 57.747287,5.49517005 56.5077723,5.85145643 C56.17799,5.94624913 55.8375974,6.04211838 55.4066874,6.16203109 C55.2875346,6.19518868 54.5515134,6.39932495 54.3454182,6.45682336 C52.9621488,6.84510967 51.2537509,6.38975461 50.9795508,4.83688951 C50.8467697,4.90725486 50.6823732,5.02172264 50.0187024,5.48476663 C49.0190834,6.15357253 48.5542682,6.37769997 48.110647,6.40898266 C46.8777795,6.49173747 46.267178,5.929876 45.5800847,4.61776408 C45.2385673,3.96331171 45.071581,3.70028007 44.9052502,3.54758951 C44.5140286,3.90933686 44.4263014,3.98961537 44.2690011,4.13355538 C43.1453893,5.16287721 42.6166301,5.73259914 42.133566,6.53054831 C42.0110098,6.73379199 41.9121041,6.92059181 41.7156028,7.30986736 C40.9793517,8.76855352 40.5426942,9.33419046 39.6030275,9.63773792 C39.2010238,9.76678967 39.1612537,9.77897366 38.3388249,10.028752 C35.0789406,11.0188055 33.8197407,11.7632467 32.9565252,13.7088059 C32.8130416,14.0311837 32.6587673,14.337337 32.4848948,14.6505662 C32.2981296,14.9870213 31.6898709,15.9867922 31.687028,15.9916375 C31.054247,17.0701394 30.8042099,17.8854666 30.8042099,19.2623127 C30.8042099,19.8861288 30.6506818,20.3784354 30.3290797,20.9299701 C30.2224049,21.1129132 29.7260689,21.8724154 29.8076959,21.7446056 C29.2898361,22.5540561 28.543223,23.3032063 27.6255561,23.9960584 C26.6060293,24.7658164 24.3594609,26.0037106 24.840936,25.6758934 C24.1239425,26.1639233 23.4294251,26.4519 22.0737054,26.898907 C20.139695,27.5352981 19.4126244,27.8741852 18.7503321,28.5547636 C18.5298473,28.7824517 18.3846554,29.0564364 18.1552262,29.6265767 C17.7852655,30.5488223 17.5848785,30.9138595 17.1686231,31.2632097 C16.6051509,31.7333081 16.2335777,31.8955272 15.4225308,32.1294172 C15.0322501,32.2419665 14.8578105,32.3133048 14.6648394,32.4557306 C14.1512512,32.8347936 13.6561441,33.7193159 13.0576556,35.5401112 C12.7762674,36.3978455 12.4493648,36.7739457 11.8043337,37.1607542 C11.2250938,37.5081095 11.0523107,37.6471922 10.7360012,38.1110146 C10.4569683,38.5211096 10.1234838,38.9652996 9.62916663,39.5951578 C9.71515583,39.4855905 8.63838422,40.8482894 8.33679881,41.2392431 C7.05214495,42.9045761 6.23993908,44.1624157 5.74423638,45.3812888 C5.09301156,46.982572 5.09994047,48.326369 5.86114763,49.4894736 C6.70259622,50.7794718 6.82595404,51.5735818 6.50120581,53.1762286 C6.35287351,53.8948755 6.29456413,54.6043676 6.29673609,55.4602991 C6.29769341,55.8375629 6.30604797,56.1200549 6.33365172,56.8483523 C6.35634836,57.4471806 6.3663039,57.7714091 6.36994668,58.1322675 C6.26135148,59.7602899 5.96933945,60.5347477 5.26120922,62.0468221 C4.60053613,63.4569649 4.35559773,64.069306 4.17807843,64.8733456 C4.0903782,65.2760449 3.85182815,65.5461124 3.43262463,65.8358013 C3.44480988,65.8273807 2.83034476,66.2263037 2.65873428,66.3582654 C1.89011334,66.9493049 1.49658633,67.7552766 1.50002122,69.2802374 C1.92976747,69.8812693 2.08865661,70.1518529 2.26557395,70.4918516 C2.96744341,71.8407002 3.30024646,73.1317694 3.07768894,74.3898128 C2.21205758,77.0115196 2.55740499,77.5499393 4.31651136,78.373445 C6.05858395,79.190395 6.73953355,79.8179577 6.85939705,81.217741 C6.88281333,81.4974391 7.07034562,81.7889969 8.0626332,83.1531315 C8.26433279,83.4304154 8.41646176,83.645809 8.55772736,83.8570578 C8.77189707,84.1773275 8.94442216,84.4647133 9.08197035,84.7378191 C9.46765732,85.4009663 10.3984018,87.0452644 10.8182963,87.7323636 C12.2016806,89.99608 13.7351917,92.227533 15.41184,94.3136781 C20.2270833,100.304974 25.1973121,103.852992 30.0233772,103.790331 C32.6157856,103.757182 35.2302649,103.237976 37.9814914,102.350294 C38.5425308,102.169275 39.0924446,101.978522 39.6813896,101.763538 C39.9075735,101.680973 40.1303262,101.59826 40.3980869,101.497769 C40.4645037,101.472842 40.9012932,101.308413 41.0169053,101.265175 C42.5446515,100.693814 42.5484654,100.692711 42.8590755,101.061951 C43.5222663,101.83981 45.4404351,102.309623 47.4235472,102.350513 C48.4685437,101.989153 48.93134,101.811839 51.5636439,100.785629 C55.9272208,99.0844794 58.2838292,98.3361927 60.9738834,97.9924947 C63.3382051,97.6904143 65.5127187,97.8467993 67.5735239,98.5356664 C69.450071,98.9427081 70.2002435,99.6003314 70.1561519,100.874447 C70.0499346,103.853112 71.697885,104.657444 75.1061491,104.137863 C75.7283584,104.043009 76.3700906,103.910837 77.1968741,103.716287 C77.4363278,103.659941 78.2181421,103.471476 78.2414738,103.465907 C78.6357088,103.371797 78.9156737,103.308376 79.1677902,103.257617 C81.3494909,102.812126 82.7726136,104.512215 84.2214348,107.692842 C84.5560241,108.428979 84.3002944,110.267487 83.2752442,116.028437 C82.3461323,121.24949 82.0589892,123.219069 82.2154585,123.783919 C82.6057119,124.672693 83.7135052,125.827854 85.4773682,127.472424 C86.4368086,128.360036 88.1498894,129.91883 88.418119,130.165903 C89.2761611,130.95627 89.7022599,131.376166 89.8618204,131.615619 C90.2675626,132.21787 90.6348138,132.975171 92.3708576,136.678544 C93.6027395,139.30433 94.2396723,140.592982 94.6873023,141.313905 C95.3980158,142.454263 95.6667482,143.258635 95.5355919,143.890232 C95.4206413,144.44379 95.1344153,144.699277 94.4777092,145.06371 C93.6483517,145.524274 93.5590688,145.776034 94.2199442,147.107177 C94.2300345,147.127398 95.3083657,148.618696 95.7834772,149.364483 C96.2620177,150.115654 96.6516057,150.826069 96.9387994,151.503498 C97.4592018,152.731016 97.6210386,153.793893 97.3119451,154.669023 C96.9186838,155.786183 96.4065711,156.592501 95.2071824,158.187344 C93.8588732,159.981951 93.3555792,160.823143 93.0782737,161.910286 C92.8871042,162.663017 92.8749684,162.703854 92.2042219,164.908179 C91.9303194,165.808325 91.751583,166.422455 91.5884075,167.041655 C91.1091278,168.860371 90.8987714,170.286307 90.981744,171.520348 C91.101163,173.305156 91.6419991,174.493401 92.9001671,176.180477 C93.0312966,176.356308 93.7325855,177.273681 93.9356664,177.548117 C94.3136016,178.058844 94.6220383,178.508363 94.9110652,178.981422 C94.9147679,178.987647 95.3828544,181.794987 95.7827496,183.12943 C96.2745285,184.770489 96.920253,185.951547 97.7056608,186.489121 C99.0899739,187.439815 99.7758275,188.484252 99.8290739,190.015112 C99.8490789,190.604241 99.8405354,191.068914 99.8043753,192.038379 C99.7730805,192.877404 99.7648663,193.223789 99.7731862,193.667645 C99.7954557,194.855695 99.9694174,195.813522 100.390049,196.794467 C100.619622,197.328146 100.743905,197.763212 100.95761,198.671059 C101.063776,199.122065 101.103952,199.28669 101.1676,199.519915 C101.309733,200.046822 101.409058,200.593094 101.506319,201.314385 C101.531586,201.501761 101.547792,201.629441 101.593224,201.993934 C101.887187,204.352345 102.178503,205.317212 103.093042,206.180035 C103.58863,206.427323 104.635099,207.253193 105.015738,207.705469 C106.469769,208.970328 110.118205,217.430258 109.82593,221.251381 C109.733392,222.490779 111.070359,225.479968 111.889322,225.983467 C112.926706,226.615976 115.138201,226.64573 118.408452,226.198002 C119.142167,226.09755 119.90715,225.977449 120.836975,225.820196 C120.865368,225.815394 123.096113,225.429821 123.637667,225.343551 C124.573526,225.194468 125.191264,225.123149 125.621688,225.126507 C125.836398,225.128477 125.866022,225.134606 126.627338,225.31001 C127.424265,225.479344 127.740111,225.486501 127.772889,225.459957 C128.131907,225.144817 128.225514,225.072566 128.320934,225.011451 C129.364573,224.712452 129.870039,224.681361 130.994387,224.662629 C131.838565,224.648231 132.233872,224.629187 132.667607,224.573342 C134.405417,224.355276 135.381051,223.777301 136.717805,222.412927 C136.868864,222.258746 137.399724,221.704339 137.475823,221.625786 C137.793599,221.297763 138.056117,221.038198 138.330359,220.785501 C139.378071,219.883952 139.931789,219.54494 141.156434,218.875479 C143.284976,217.711745 144.087444,217.094205 144.590566,216.011186 C144.736096,215.698596 144.854969,215.358284 144.974929,214.93063 C145.027958,214.741582 145.050634,214.654214 145.16056,214.222533 C145.618241,212.425217 146.011961,211.638007 147.103892,210.98678 C148.938286,209.886529 150.184961,208.434902 150.969252,206.680772 C151.713341,205.016559 151.897222,203.849505 152.074588,201.196504 C152.156798,199.966811 152.20575,199.717416 152.699477,199.566494 C155.369118,198.74649 157.12679,198.043906 158.266117,197.350139 C159.949728,196.324942 160.264934,195.583409 160.421121,193.11337 C160.540108,191.231633 160.629254,190.415484 160.935774,189.085361 C161.147838,188.160629 160.963567,187.328001 160.354941,185.832537 C159.866258,184.631787 159.780959,184.400512 159.68238,183.885147 C159.400033,182.378438 159.713903,181.684862 160.747424,181.104281 C160.852784,181.045095 161.311651,180.803097 161.434612,180.734528 C161.712205,180.579728 161.94607,180.430422 162.177648,180.25358 C162.163965,180.264051 163.660019,179.161328 164.233074,178.721924 C165.532361,177.708913 166.175121,177.126022 166.26455,176.932353 C166.339182,176.772862 166.650136,176.021957 166.730773,175.841748 C167.120897,174.969898 167.507896,174.407435 168.072562,174.079644 C169.048923,173.520312 170.306965,173.231844 171.615039,173.215398 C173.16544,173.195242 174.884221,171.841676 176.720095,169.615571 C177.182084,168.978455 177.318692,168.766254 177.513153,168.451558 C177.974571,167.704844 178.323405,167.058472 178.576654,166.450484 C178.97891,165.484769 179.103872,164.687536 178.924161,164.073263 C178.586695,162.893337 178.584358,161.839598 178.874769,160.511223 C178.942173,160.204395 179.583288,153.302163 179.717854,151.67572 C179.719661,151.653055 179.550857,151.561832 178.907557,151.39398 C178.02191,151.16283 177.6933,151.027787 177.442251,150.636618 C176.868454,149.749681 176.908453,143.268171 177.70447,137.780749 C178.833055,130.000734 181.20777,124.059262 184.977597,121.412439 C188.265641,117.203266 191.21978,114.125664 194.314364,112.022638 C194.658695,111.789702 195.914678,110.986338 196.030916,110.910212 C198.211698,109.481998 199.269163,108.372857 199.531024,106.874797 C199.584999,106.534531 199.852077,106.192644 200.161903,106.039628 C200.396893,105.926213 200.689524,105.707934 201.02538,105.398219 C201.247928,105.192992 201.484594,104.952535 201.741591,104.673644 C201.858042,104.547273 203.08554,103.127816 203.269075,103.005398 C203.98583,102.534439 205.078217,100.851934 206.387385,98.2665469 C206.817025,97.4180787 207.265745,96.4821944 207.732414,95.4664373 C208.398123,94.0174506 209.060467,92.4959083 209.78127,90.7828238 C209.996269,90.2718502 210.887227,88.128598 211.013388,87.8398154 C211.202431,87.4011621 211.304873,86.9284941 211.378459,86.2564111 C211.57529,84.146279 211.746922,83.4437735 212.368985,82.6461054 C212.54347,82.4218262 212.560084,81.0350427 212.323864,79.861295 C212.198276,79.2372649 212.019512,78.7385522 211.825993,78.4698742 C211.740702,78.3514586 211.557663,78.180314 211.276875,77.9564405 C211.372085,78.5008456 210.307622,79.2961805 209.993217,79.5217924 Z M184.901655,121.548307 C184.898939,121.555344 184.897686,121.558592 184.897012,121.560373 C184.901618,121.547739 184.908766,121.534569 184.952739,121.456317 C184.92995,121.485945 184.922798,121.501709 184.901655,121.548307 Z M184.896001,121.563183 C184.896654,121.561207 184.897219,121.5595 184.897898,121.557685 C184.896435,121.561899 184.896283,121.562348 184.896001,121.563183 Z M29.8167547,21.7304718 C29.8142752,21.7343664 29.8117905,21.7382595 29.8093005,21.7421512 C29.8101739,21.7407257 29.8131844,21.7360281 29.8167547,21.7304718 Z M148.071257,18.0636154 C148.068211,18.0559719 148.065493,18.0495196 148.063138,18.0443267 C148.063955,18.0461281 148.064769,18.0479074 148.065582,18.0496666 L148.071257,18.0636154 Z"/>
    <path id="logo_large_on_dark-e" d="M44.055071,28.0749885 C43.0184897,27.5531455 41.7745921,27.9706199 41.2562683,29.0142726 C38.3538406,34.9632498 32.2378449,38.9294573 25.7072168,38.9294573 C17.2075816,38.9294573 10.1581652,32.771676 8.70728309,24.631125 L13.1646159,24.2136506 L6.11586296,16.385838 L0,25.3618723 L4.56095781,24.9443978 C6.21948792,35.1721874 15.0302633,43 25.7072168,43 C33.896375,43 41.4632528,38.199044 44.9872976,30.7890399 C45.5055883,29.7453538 45.0909557,28.4929305 44.0544076,28.0754561 L44.055071,28.0749885 Z M46.7501824,17.9514005 C45.0916523,7.72361096 36.280877,0 25.7074158,0 C17.5182575,0 10.26252,4.59221874 6.5308272,11.8976873 C6.01253654,12.9413734 6.42716906,14.1937967 7.46371721,14.7156731 C8.50026536,15.2375496 9.74419612,14.8200417 10.26252,13.776389 C13.1649476,7.8274118 19.177451,4.17447713 25.7074158,4.17447713 C34.1035586,4.17447713 41.1523116,10.3322584 42.7073494,18.3686078 L39.0792816,18.6817136 L45.6097771,26.0920518 L51,17.6383615 L46.7501824,17.9514005 Z"/>
    <path id="logo_large_on_dark-g" d="M9.99706266,0.888523828 L0.744767456,11.6790782 C0.127925843,12.3984923 0.641960521,13.6317173 1.66999698,13.6317173 L7.01595762,13.6317173 L3.21213391,22.983838 C3.00652004,23.4976818 3.62336165,23.805988 4.03458939,23.4976818 L14.2126405,11.2680361 C14.9323219,10.4458861 14.3154474,9.1099252 13.1845711,9.1099252 L8.45545211,9.1099252 L11.3340463,1.71057517 C11.5396602,0.88842517 10.5115908,0.271812669 9.99758904,0.88842517 L9.99706266,0.888523828 Z"/>
    <path id="logo_large_on_dark-i" d="M14.26,31.004 C11.6533203,31.004 9.26901081,30.4290058 7.107,29.279 C4.94498919,28.1289943 3.22000644,26.4040115 1.932,24.104 C0.64399356,21.8039885 0,19.0133497 0,15.732 C0,12.5119839 0.66699333,9.71367855 2.001,7.337 C3.33500667,4.96032145 5.09832237,3.14333962 7.291,1.886 C9.48367763,0.62866038 11.8679871,0 14.444,0 C16.2840092,0 18.0013254,0.36799632 19.596,1.104 C21.1906746,1.84000368 22.5706608,2.79066084 23.736,3.956 L19.596,9.016 C18.7679959,8.27999632 17.9706705,7.72800184 17.204,7.36 C16.4373295,6.99199816 15.5786714,6.808 14.628,6.808 C13.4626608,6.808 12.3816717,7.16066314 11.385,7.866 C10.3883283,8.57133686 9.59100299,9.57566015 8.993,10.879 C8.39499701,12.1823398 8.096,13.7079913 8.096,15.456 C8.096,18.2160138 8.67866084,20.362659 9.844,21.896 C11.0093392,23.429341 12.5733235,24.196 14.536,24.196 C16.5600101,24.196 18.3693254,23.3373419 19.964,21.62 L24.104,26.588 C22.8466604,28.0600074 21.3823417,29.1639963 19.711,29.9 C18.0396583,30.6360037 16.2226765,31.004 14.26,31.004 Z M28.244,0.552 L36.156,0.552 L36.156,30.452 L28.244,30.452 L28.244,0.552 Z M58.88,30.452 L53.728,20.424 L50.692,20.424 L50.692,30.452 L42.78,30.452 L42.78,0.552 L54.096,0.552 C57.6840179,0.552 60.5743224,1.29565923 62.767,2.783 C64.9596776,4.27034077 66.056,6.74664934 66.056,10.212 C66.056,12.2666769 65.626671,14.0146595 64.768,15.456 C63.909329,16.8973405 62.7286742,18.0319959 61.226,18.86 L67.712,30.452 L58.88,30.452 Z M50.692,14.168 L53.544,14.168 C55.1080078,14.168 56.2963293,13.83067 57.109,13.156 C57.9216707,12.48133 58.328,11.5000064 58.328,10.212 C58.328,8.95466038 57.9370039,8.07300253 57.155,7.567 C56.3729961,7.06099747 55.1693415,6.808 53.544,6.808 L50.692,6.808 L50.692,14.168 Z M71.76,0.552 L91.08,0.552 L91.08,7.176 L79.672,7.176 L79.672,11.868 L89.424,11.868 L89.424,18.492 L79.672,18.492 L79.672,23.828 L91.54,23.828 L91.54,30.452 L71.76,30.452 L71.76,0.552 Z M111.136,31.004 C108.283986,31.004 105.715678,30.4290058 103.431,29.279 C101.146322,28.1289943 99.3446733,26.4040115 98.026,24.104 C96.7073267,21.8039885 96.048,19.0133497 96.048,15.732 C96.048,12.5119839 96.7226599,9.71367855 98.072,7.337 C99.4213401,4.96032145 101.230655,3.14333962 103.5,1.886 C105.769345,0.62866038 108.25332,0 110.952,0 C113.006677,0 114.854325,0.36799632 116.495,1.104 C118.135675,1.84000368 119.538661,2.79066084 120.704,3.956 L116.564,9.016 C115.735996,8.27999632 114.915671,7.72800184 114.103,7.36 C113.290329,6.99199816 112.332006,6.808 111.228,6.808 C109.142656,6.808 107.440673,7.58232559 106.122,9.131 C104.803327,10.6796744 104.144,12.7879867 104.144,15.456 C104.144,18.3080143 104.787994,20.4776592 106.076,21.965 C107.364006,23.4523408 109.326653,24.196 111.964,24.196 C112.945338,24.196 113.711997,24.0120018 114.264,23.644 L114.264,19.504 L109.848,19.504 L109.848,13.064 L121.256,13.064 L121.256,27.324 C120.151994,28.3973387 118.695342,29.2789966 116.886,29.969 C115.076658,30.6590035 113.16001,31.004 111.136,31.004 Z"/>
  </defs>
  <g fill="none" fill-rule="evenodd">
    <g transform="translate(1)">
      <mask id="logo_large_on_dark-b" fill="#fff">
        <use xlink:href="#logo_large_on_dark-a"/>
      </mask>
      <g mask="url(#logo_large_on_dark-b)">
        <g transform="translate(-1)">
          <mask id="logo_large_on_dark-d" fill="#fff">
            <use xlink:href="#logo_large_on_dark-c"/>
          </mask>
          <use fill="#032738" fill-rule="nonzero" xlink:href="#logo_large_on_dark-c"/>
          <g mask="url(#logo_large_on_dark-d)">
            <rect width="214" height="228" fill="#CCD3D7"/>
          </g>
        </g>
      </g>
    </g>
    <g transform="translate(43 41)">
      <mask id="logo_large_on_dark-f" fill="#fff">
        <use xlink:href="#logo_large_on_dark-e"/>
      </mask>
      <use fill="#0C4D6C" xlink:href="#logo_large_on_dark-e"/>
      <g fill="#F7F7F7" mask="url(#logo_large_on_dark-f)">
        <rect width="51" height="43"/>
      </g>
      <g transform="translate(18 9)">
        <mask id="logo_large_on_dark-h" fill="#fff">
          <use xlink:href="#logo_large_on_dark-g"/>
        </mask>
        <g fill="#EEA00A" mask="url(#logo_large_on_dark-h)">
          <rect width="15" height="24"/>
        </g>
      </g>
      <g transform="translate(61 6)">
        <mask id="logo_large_on_dark-j" fill="#fff">
          <use xlink:href="#logo_large_on_dark-i"/>
        </mask>
        <use fill="#F7F7F7" xlink:href="#logo_large_on_dark-i"/>
        <g fill="#F7F7F7" mask="url(#logo_large_on_dark-j)">
          <rect width="122" height="33" transform="translate(0 -1)"/>
        </g>
      </g>
    </g>
    <path fill="#F7F7F7" d="M109.376,100.192 C108.501329,100.192 107.720003,99.9733355 107.032,99.536 C106.343997,99.0986645 105.805335,98.4693374 105.416,97.648 C105.026665,96.8266626 104.832,95.8613389 104.832,94.752 C104.832,93.6533278 105.029331,92.6906708 105.424,91.864 C105.818669,91.0373292 106.367996,90.4026689 107.072,89.96 C107.776004,89.5173311 108.570662,89.296 109.456,89.296 C110.04267,89.296 110.581331,89.4186654 111.072,89.664 C111.562669,89.9093346 111.973332,90.2133315 112.304,90.576 L111.648,91.36 C111.039997,90.6773299 110.314671,90.336 109.472,90.336 C108.78933,90.336 108.192003,90.5146649 107.68,90.872 C107.167997,91.2293351 106.770668,91.7359967 106.488,92.392 C106.205332,93.0480033 106.064,93.8239955 106.064,94.72 C106.064,95.6160045 106.199999,96.39733 106.472,97.064 C106.744001,97.73067 107.133331,98.2453315 107.64,98.608 C108.146669,98.9706685 108.74133,99.152 109.424,99.152 C109.914669,99.152 110.359998,99.0506677 110.76,98.848 C111.160002,98.6453323 111.546665,98.3413354 111.92,97.936 L112.576,98.672 C112.149331,99.1733358 111.674669,99.5519987 111.152,99.808 C110.629331,100.064001 110.037337,100.192 109.376,100.192 Z M115.728,100.192 C115.290664,100.192 114.970668,100.056001 114.768,99.784 C114.565332,99.5119986 114.464,99.109336 114.464,98.576 L114.464,88.576 L115.616,88.576 L115.616,98.672 C115.616,98.8533342 115.650666,98.9893329 115.72,99.08 C115.789334,99.1706671 115.877333,99.216 115.984,99.216 C116.069334,99.216 116.165333,99.2053334 116.272,99.184 L116.432,100.08 C116.229332,100.154667 115.994668,100.192 115.728,100.192 Z M118.464,92.24 L119.616,92.24 L119.616,100 L118.464,100 L118.464,92.24 Z M119.056,90.576 C118.821332,90.576 118.629334,90.5013341 118.48,90.352 C118.330666,90.2026659 118.256,90.0053346 118.256,89.76 C118.256,89.5253322 118.330666,89.3360007 118.48,89.192 C118.629334,89.0479993 118.821332,88.976 119.056,88.976 C119.290668,88.976 119.482666,89.0479993 119.632,89.192 C119.781334,89.3360007 119.856,89.5253322 119.856,89.76 C119.856,90.0053346 119.781334,90.2026659 119.632,90.352 C119.482666,90.5013341 119.290668,90.576 119.056,90.576 Z M122.336,92.24 L123.296,92.24 L123.392,93.392 L123.44,93.392 C124.261337,92.4959955 125.066663,92.048 125.856,92.048 C126.954672,92.048 127.669332,92.5493283 128,93.552 C128.448002,93.0613309 128.879998,92.6880013 129.296,92.432 C129.712002,92.1759987 130.138664,92.048 130.576,92.048 C132.144008,92.048 132.928,93.0559899 132.928,95.072 L132.928,100 L131.76,100 L131.76,95.216 C131.76,94.4693296 131.637335,93.925335 131.392,93.584 C131.146665,93.242665 130.762669,93.072 130.24,93.072 C129.631997,93.072 128.95467,93.4879958 128.208,94.32 L128.208,100 L127.04,100 L127.04,95.216 C127.04,94.4799963 126.917335,93.9386684 126.672,93.592 C126.426665,93.2453316 126.048003,93.072 125.536,93.072 C124.927997,93.072 124.245337,93.4879958 123.488,94.32 L123.488,100 L122.336,100 L122.336,92.24 Z M137.296,100.192 C136.634663,100.192 136.090669,100.000002 135.664,99.616 C135.237331,99.2319981 135.024,98.6933368 135.024,98 C135.024,97.1573291 135.407996,96.5093356 136.176,96.056 C136.944004,95.6026644 138.170658,95.2853342 139.856,95.104 C139.856,94.495997 139.730668,93.9973353 139.48,93.608 C139.229332,93.2186647 138.800003,93.024 138.192,93.024 C137.455996,93.024 136.672004,93.3066638 135.84,93.872 L135.376,93.072 C136.400005,92.3893299 137.402662,92.048 138.384,92.048 C139.280004,92.048 139.941331,92.3279972 140.368,92.888 C140.794669,93.4480028 141.008,94.2186618 141.008,95.2 L141.008,100 L140.048,100 L139.952,99.056 L139.904,99.056 C138.986662,99.8133371 138.117337,100.192 137.296,100.192 Z M137.6,99.248 C137.973335,99.248 138.338665,99.1600009 138.696,98.984 C139.053335,98.8079991 139.439998,98.5333352 139.856,98.16 L139.856,95.888 C138.52266,96.0480008 137.576003,96.2933317 137.016,96.624 C136.455997,96.9546683 136.176,97.3919973 136.176,97.936 C136.176,98.3733355 136.309332,98.7013322 136.576,98.92 C136.842668,99.1386678 137.183998,99.248 137.6,99.248 Z M145.904,100.192 C145.135996,100.192 144.586668,99.9733355 144.256,99.536 C143.925332,99.0986645 143.76,98.4746707 143.76,97.664 L143.76,93.2 L142.592,93.2 L142.592,92.32 L143.808,92.24 L143.952,90.048 L144.928,90.048 L144.928,92.24 L147.056,92.24 L147.056,93.2 L144.928,93.2 L144.928,97.696 C144.928,98.2080026 145.021332,98.5919987 145.208,98.848 C145.394668,99.1040013 145.711998,99.232 146.16,99.232 C146.384001,99.232 146.682665,99.1626674 147.056,99.024 L147.296,99.904 C146.719997,100.096001 146.256002,100.192 145.904,100.192 Z M154.768,95.68 C154.768,95.9573347 154.752,96.191999 154.72,96.384 L149.36,96.384 C149.413334,97.2906712 149.693331,97.9946642 150.2,98.496 C150.706669,98.9973358 151.327996,99.248 152.064,99.248 C152.74667,99.248 153.402664,99.0400021 154.032,98.624 L154.464,99.392 C154.079998,99.6373346 153.685335,99.8319993 153.28,99.976 C152.874665,100.120001 152.421336,100.192 151.92,100.192 C151.23733,100.192 150.616003,100.029335 150.056,99.704 C149.495997,99.378665 149.053335,98.9066698 148.728,98.288 C148.402665,97.6693302 148.24,96.9493374 148.24,96.128 C148.24,95.3173293 148.402665,94.6026698 148.728,93.984 C149.053335,93.3653302 149.482664,92.8880017 150.016,92.552 C150.549336,92.2159983 151.114664,92.048 151.712,92.048 C152.672005,92.048 153.421331,92.3706634 153.96,93.016 C154.498669,93.6613366 154.768,94.5493277 154.768,95.68 Z M153.728,95.536 C153.728,94.7146626 153.552002,94.0853355 153.2,93.648 C152.847998,93.2106645 152.357336,92.992 151.728,92.992 C151.151997,92.992 150.640002,93.2106645 150.192,93.648 C149.743998,94.0853355 149.477334,94.7146626 149.392,95.536 L153.728,95.536 Z M160.032,89.488 L161.216,89.488 L161.216,100 L160.032,100 L160.032,89.488 Z M164.032,92.24 L164.992,92.24 L165.088,93.392 L165.136,93.392 C165.562669,92.9653312 165.981331,92.6346678 166.392,92.4 C166.802669,92.1653322 167.253331,92.048 167.744,92.048 C168.554671,92.048 169.151998,92.3013308 169.536,92.808 C169.920002,93.3146692 170.112,94.0693283 170.112,95.072 L170.112,100 L168.944,100 L168.944,95.216 C168.944,94.4693296 168.824001,93.925335 168.584,93.584 C168.343999,93.242665 167.952003,93.072 167.408,93.072 C167.023998,93.072 166.666668,93.1706657 166.336,93.368 C166.005332,93.5653343 165.621336,93.8826645 165.184,94.32 L165.184,100 L164.032,100 L164.032,92.24 Z M175.184,89.344 C174.43733,89.344 174.064,89.8666614 174.064,90.912 L174.064,92.24 L175.744,92.24 L175.744,93.2 L174.064,93.2 L174.064,100 L172.896,100 L172.896,93.2 L171.84,93.2 L171.84,92.32 L172.896,92.24 L172.896,90.896 C172.896,90.095996 173.079998,89.4773355 173.448,89.04 C173.816002,88.6026645 174.362663,88.384 175.088,88.384 C175.504002,88.384 175.919998,88.4693325 176.336,88.64 L176.08,89.536 C175.781332,89.4079994 175.482668,89.344 175.184,89.344 Z M180.224,100.192 C179.583997,100.192 178.992003,100.029335 178.448,99.704 C177.903997,99.378665 177.469335,98.9093364 177.144,98.296 C176.818665,97.6826636 176.656,96.9600042 176.656,96.128 C176.656,95.2959958 176.818665,94.5706698 177.144,93.952 C177.469335,93.3333302 177.903997,92.861335 178.448,92.536 C178.992003,92.210665 179.583997,92.048 180.224,92.048 C180.864003,92.048 181.455997,92.210665 182,92.536 C182.544003,92.861335 182.978665,93.3333302 183.304,93.952 C183.629335,94.5706698 183.792,95.2959958 183.792,96.128 C183.792,96.9600042 183.629335,97.6826636 183.304,98.296 C182.978665,98.9093364 182.544003,99.378665 182,99.704 C181.455997,100.029335 180.864003,100.192 180.224,100.192 Z M180.224,99.216 C180.682669,99.216 181.090665,99.0880013 181.448,98.832 C181.805335,98.5759987 182.085332,98.2133357 182.288,97.744 C182.490668,97.2746643 182.592,96.736003 182.592,96.128 C182.592,95.519997 182.490668,94.9813357 182.288,94.512 C182.085332,94.0426643 181.805335,93.6773346 181.448,93.416 C181.090665,93.1546654 180.682669,93.024 180.224,93.024 C179.765331,93.024 179.357335,93.1546654 179,93.416 C178.642665,93.6773346 178.365334,94.0426643 178.168,94.512 C177.970666,94.9813357 177.872,95.519997 177.872,96.128 C177.872,97.0560046 178.090664,97.8026638 178.528,98.368 C178.965336,98.9333362 179.530663,99.216 180.224,99.216 Z M185.904,92.24 L186.864,92.24 L186.96,93.664 L187.008,93.664 C187.274668,93.1626642 187.599998,92.7680014 187.984,92.48 C188.368002,92.1919986 188.778664,92.048 189.216,92.048 C189.525335,92.048 189.791999,92.1013328 190.016,92.208 L189.792,93.232 C189.514665,93.1466662 189.269334,93.104 189.056,93.104 C188.693332,93.104 188.333335,93.2533318 187.976,93.552 C187.618665,93.8506682 187.312001,94.3146635 187.056,94.944 L187.056,100 L185.904,100 L185.904,92.24 Z M191.344,92.24 L192.304,92.24 L192.4,93.392 L192.448,93.392 C193.269337,92.4959955 194.074663,92.048 194.864,92.048 C195.962672,92.048 196.677332,92.5493283 197.008,93.552 C197.456002,93.0613309 197.887998,92.6880013 198.304,92.432 C198.720002,92.1759987 199.146664,92.048 199.584,92.048 C201.152008,92.048 201.936,93.0559899 201.936,95.072 L201.936,100 L200.768,100 L200.768,95.216 C200.768,94.4693296 200.645335,93.925335 200.4,93.584 C200.154665,93.242665 199.770669,93.072 199.248,93.072 C198.639997,93.072 197.96267,93.4879958 197.216,94.32 L197.216,100 L196.048,100 L196.048,95.216 C196.048,94.4799963 195.925335,93.9386684 195.68,93.592 C195.434665,93.2453316 195.056003,93.072 194.544,93.072 C193.935997,93.072 193.253337,93.4879958 192.496,94.32 L192.496,100 L191.344,100 L191.344,92.24 Z M206.304,100.192 C205.642663,100.192 205.098669,100.000002 204.672,99.616 C204.245331,99.2319981 204.032,98.6933368 204.032,98 C204.032,97.1573291 204.415996,96.5093356 205.184,96.056 C205.952004,95.6026644 207.178658,95.2853342 208.864,95.104 C208.864,94.495997 208.738668,93.9973353 208.488,93.608 C208.237332,93.2186647 207.808003,93.024 207.2,93.024 C206.463996,93.024 205.680004,93.3066638 204.848,93.872 L204.384,93.072 C205.408005,92.3893299 206.410662,92.048 207.392,92.048 C208.288004,92.048 208.949331,92.3279972 209.376,92.888 C209.802669,93.4480028 210.016,94.2186618 210.016,95.2 L210.016,100 L209.056,100 L208.96,99.056 L208.912,99.056 C207.994662,99.8133371 207.125337,100.192 206.304,100.192 Z M206.608,99.248 C206.981335,99.248 207.346665,99.1600009 207.704,98.984 C208.061335,98.8079991 208.447998,98.5333352 208.864,98.16 L208.864,95.888 C207.53066,96.0480008 206.584003,96.2933317 206.024,96.624 C205.463997,96.9546683 205.184,97.3919973 205.184,97.936 C205.184,98.3733355 205.317332,98.7013322 205.584,98.92 C205.850668,99.1386678 206.191998,99.248 206.608,99.248 Z M214.912,100.192 C214.143996,100.192 213.594668,99.9733355 213.264,99.536 C212.933332,99.0986645 212.768,98.4746707 212.768,97.664 L212.768,93.2 L211.6,93.2 L211.6,92.32 L212.816,92.24 L212.96,90.048 L213.936,90.048 L213.936,92.24 L216.064,92.24 L216.064,93.2 L213.936,93.2 L213.936,97.696 C213.936,98.2080026 214.029332,98.5919987 214.216,98.848 C214.402668,99.1040013 214.719998,99.232 215.168,99.232 C215.392001,99.232 215.690665,99.1626674 216.064,99.024 L216.304,99.904 C215.727997,100.096001 215.264002,100.192 214.912,100.192 Z M217.856,92.24 L219.008,92.24 L219.008,100 L217.856,100 L217.856,92.24 Z M218.448,90.576 C218.213332,90.576 218.021334,90.5013341 217.872,90.352 C217.722666,90.2026659 217.648,90.0053346 217.648,89.76 C217.648,89.5253322 217.722666,89.3360007 217.872,89.192 C218.021334,89.0479993 218.213332,88.976 218.448,88.976 C218.682668,88.976 218.874666,89.0479993 219.024,89.192 C219.173334,89.3360007 219.248,89.5253322 219.248,89.76 C219.248,90.0053346 219.173334,90.2026659 219.024,90.352 C218.874666,90.5013341 218.682668,90.576 218.448,90.576 Z M224.688,100.192 C224.047997,100.192 223.456003,100.029335 222.912,99.704 C222.367997,99.378665 221.933335,98.9093364 221.608,98.296 C221.282665,97.6826636 221.12,96.9600042 221.12,96.128 C221.12,95.2959958 221.282665,94.5706698 221.608,93.952 C221.933335,93.3333302 222.367997,92.861335 222.912,92.536 C223.456003,92.210665 224.047997,92.048 224.688,92.048 C225.328003,92.048 225.919997,92.210665 226.464,92.536 C227.008003,92.861335 227.442665,93.3333302 227.768,93.952 C228.093335,94.5706698 228.256,95.2959958 228.256,96.128 C228.256,96.9600042 228.093335,97.6826636 227.768,98.296 C227.442665,98.9093364 227.008003,99.378665 226.464,99.704 C225.919997,100.029335 225.328003,100.192 224.688,100.192 Z M224.688,99.216 C225.146669,99.216 225.554665,99.0880013 225.912,98.832 C226.269335,98.5759987 226.549332,98.2133357 226.752,97.744 C226.954668,97.2746643 227.056,96.736003 227.056,96.128 C227.056,95.519997 226.954668,94.9813357 226.752,94.512 C226.549332,94.0426643 226.269335,93.6773346 225.912,93.416 C225.554665,93.1546654 225.146669,93.024 224.688,93.024 C224.229331,93.024 223.821335,93.1546654 223.464,93.416 C223.106665,93.6773346 222.829334,94.0426643 222.632,94.512 C222.434666,94.9813357 222.336,95.519997 222.336,96.128 C222.336,97.0560046 222.554664,97.8026638 222.992,98.368 C223.429336,98.9333362 223.994663,99.216 224.688,99.216 Z M230.368,92.24 L231.328,92.24 L231.424,93.392 L231.472,93.392 C231.898669,92.9653312 232.317331,92.6346678 232.728,92.4 C233.138669,92.1653322 233.589331,92.048 234.08,92.048 C234.890671,92.048 235.487998,92.3013308 235.872,92.808 C236.256002,93.3146692 236.448,94.0693283 236.448,95.072 L236.448,100 L235.28,100 L235.28,95.216 C235.28,94.4693296 235.160001,93.925335 234.92,93.584 C234.679999,93.242665 234.288003,93.072 233.744,93.072 C233.359998,93.072 233.002668,93.1706657 232.672,93.368 C232.341332,93.5653343 231.957336,93.8826645 231.52,94.32 L231.52,100 L230.368,100 L230.368,92.24 Z M244.72,89.344 C243.97333,89.344 243.6,89.8666614 243.6,90.912 L243.6,92.24 L245.28,92.24 L245.28,93.2 L243.6,93.2 L243.6,100 L242.432,100 L242.432,93.2 L241.376,93.2 L241.376,92.32 L242.432,92.24 L242.432,90.896 C242.432,90.095996 242.615998,89.4773355 242.984,89.04 C243.352002,88.6026645 243.898663,88.384 244.624,88.384 C245.040002,88.384 245.455998,88.4693325 245.872,88.64 L245.616,89.536 C245.317332,89.4079994 245.018668,89.344 244.72,89.344 Z M249.76,100.192 C249.119997,100.192 248.528003,100.029335 247.984,99.704 C247.439997,99.378665 247.005335,98.9093364 246.68,98.296 C246.354665,97.6826636 246.192,96.9600042 246.192,96.128 C246.192,95.2959958 246.354665,94.5706698 246.68,93.952 C247.005335,93.3333302 247.439997,92.861335 247.984,92.536 C248.528003,92.210665 249.119997,92.048 249.76,92.048 C250.400003,92.048 250.991997,92.210665 251.536,92.536 C252.080003,92.861335 252.514665,93.3333302 252.84,93.952 C253.165335,94.5706698 253.328,95.2959958 253.328,96.128 C253.328,96.9600042 253.165335,97.6826636 252.84,98.296 C252.514665,98.9093364 252.080003,99.378665 251.536,99.704 C250.991997,100.029335 250.400003,100.192 249.76,100.192 Z M249.76,99.216 C250.218669,99.216 250.626665,99.0880013 250.984,98.832 C251.341335,98.5759987 251.621332,98.2133357 251.824,97.744 C252.026668,97.2746643 252.128,96.736003 252.128,96.128 C252.128,95.519997 252.026668,94.9813357 251.824,94.512 C251.621332,94.0426643 251.341335,93.6773346 250.984,93.416 C250.626665,93.1546654 250.218669,93.024 249.76,93.024 C249.301331,93.024 248.893335,93.1546654 248.536,93.416 C248.178665,93.6773346 247.901334,94.0426643 247.704,94.512 C247.506666,94.9813357 247.408,95.519997 247.408,96.128 C247.408,97.0560046 247.626664,97.8026638 248.064,98.368 C248.501336,98.9333362 249.066663,99.216 249.76,99.216 Z M255.44,92.24 L256.4,92.24 L256.496,93.664 L256.544,93.664 C256.810668,93.1626642 257.135998,92.7680014 257.52,92.48 C257.904002,92.1919986 258.314664,92.048 258.752,92.048 C259.061335,92.048 259.327999,92.1013328 259.552,92.208 L259.328,93.232 C259.050665,93.1466662 258.805334,93.104 258.592,93.104 C258.229332,93.104 257.869335,93.2533318 257.512,93.552 C257.154665,93.8506682 256.848001,94.3146635 256.592,94.944 L256.592,100 L255.44,100 L255.44,92.24 Z M264.192,89.488 L265.376,89.488 L265.376,100 L264.192,100 L264.192,89.488 Z M268.192,92.24 L269.152,92.24 L269.248,93.392 L269.296,93.392 C269.722669,92.9653312 270.141331,92.6346678 270.552,92.4 C270.962669,92.1653322 271.413331,92.048 271.904,92.048 C272.714671,92.048 273.311998,92.3013308 273.696,92.808 C274.080002,93.3146692 274.272,94.0693283 274.272,95.072 L274.272,100 L273.104,100 L273.104,95.216 C273.104,94.4693296 272.984001,93.925335 272.744,93.584 C272.503999,93.242665 272.112003,93.072 271.568,93.072 C271.183998,93.072 270.826668,93.1706657 270.496,93.368 C270.165332,93.5653343 269.781336,93.8826645 269.344,94.32 L269.344,100 L268.192,100 L268.192,92.24 Z M279.232,100.192 C278.463996,100.192 277.914668,99.9733355 277.584,99.536 C277.253332,99.0986645 277.088,98.4746707 277.088,97.664 L277.088,93.2 L275.92,93.2 L275.92,92.32 L277.136,92.24 L277.28,90.048 L278.256,90.048 L278.256,92.24 L280.384,92.24 L280.384,93.2 L278.256,93.2 L278.256,97.696 C278.256,98.2080026 278.349332,98.5919987 278.536,98.848 C278.722668,99.1040013 279.039998,99.232 279.488,99.232 C279.712001,99.232 280.010665,99.1626674 280.384,99.024 L280.624,99.904 C280.047997,100.096001 279.584002,100.192 279.232,100.192 Z M288.096,95.68 C288.096,95.9573347 288.08,96.191999 288.048,96.384 L282.688,96.384 C282.741334,97.2906712 283.021331,97.9946642 283.528,98.496 C284.034669,98.9973358 284.655996,99.248 285.392,99.248 C286.07467,99.248 286.730664,99.0400021 287.36,98.624 L287.792,99.392 C287.407998,99.6373346 287.013335,99.8319993 286.608,99.976 C286.202665,100.120001 285.749336,100.192 285.248,100.192 C284.56533,100.192 283.944003,100.029335 283.384,99.704 C282.823997,99.378665 282.381335,98.9066698 282.056,98.288 C281.730665,97.6693302 281.568,96.9493374 281.568,96.128 C281.568,95.3173293 281.730665,94.6026698 282.056,93.984 C282.381335,93.3653302 282.810664,92.8880017 283.344,92.552 C283.877336,92.2159983 284.442664,92.048 285.04,92.048 C286.000005,92.048 286.749331,92.3706634 287.288,93.016 C287.826669,93.6613366 288.096,94.5493277 288.096,95.68 Z M287.056,95.536 C287.056,94.7146626 286.880002,94.0853355 286.528,93.648 C286.175998,93.2106645 285.685336,92.992 285.056,92.992 C284.479997,92.992 283.968002,93.2106645 283.52,93.648 C283.071998,94.0853355 282.805334,94.7146626 282.72,95.536 L287.056,95.536 Z M292.64,103.616 C291.669328,103.616 290.893336,103.429335 290.312,103.056 C289.730664,102.682665 289.44,102.17067 289.44,101.52 C289.44,101.189332 289.538666,100.869335 289.736,100.56 C289.933334,100.250665 290.213332,99.9733346 290.576,99.728 L290.576,99.664 C290.373332,99.5359994 290.208001,99.3653344 290.08,99.152 C289.951999,98.9386656 289.888,98.6880014 289.888,98.4 C289.888,98.1013318 289.970666,97.8266679 290.136,97.576 C290.301334,97.3253321 290.501332,97.1200008 290.736,96.96 L290.736,96.896 C290.458665,96.6719989 290.224001,96.3786685 290.032,96.016 C289.839999,95.6533315 289.744,95.2533355 289.744,94.816 C289.744,94.2719973 289.871999,93.7893354 290.128,93.368 C290.384001,92.9466646 290.730664,92.6213345 291.168,92.392 C291.605336,92.1626655 292.085331,92.048 292.608,92.048 C292.960002,92.048 293.317332,92.1119994 293.68,92.24 L296.368,92.24 L296.368,93.152 L294.72,93.152 C294.922668,93.344001 295.087999,93.5893318 295.216,93.888 C295.344001,94.1866682 295.408,94.5013317 295.408,94.832 C295.408,95.365336 295.285335,95.8373313 295.04,96.248 C294.794665,96.6586687 294.458669,96.9759989 294.032,97.2 C293.605331,97.4240011 293.130669,97.536 292.608,97.536 C292.181331,97.536 291.786668,97.4453342 291.424,97.264 C291.253332,97.4026674 291.122667,97.5439993 291.032,97.688 C290.941333,97.8320007 290.896,98.0106656 290.896,98.224 C290.896,98.5013347 290.999999,98.7173326 291.208,98.872 C291.416001,99.0266674 291.770664,99.104 292.272,99.104 L293.824,99.104 C294.730671,99.104 295.402664,99.2533318 295.84,99.552 C296.277336,99.8506682 296.496,100.314664 296.496,100.944 C296.496,101.413336 296.336002,101.853331 296.016,102.264 C295.695998,102.674669 295.24267,103.002665 294.656,103.248 C294.06933,103.493335 293.397337,103.616 292.64,103.616 Z M292.608,96.736 C293.088002,96.736 293.495998,96.5573351 293.832,96.2 C294.168002,95.8426649 294.336,95.3813362 294.336,94.816 C294.336,94.2399971 294.170668,93.7786684 293.84,93.432 C293.509332,93.0853316 293.098669,92.912 292.608,92.912 C292.117331,92.912 291.704002,93.0853316 291.368,93.432 C291.031998,93.7786684 290.864,94.2399971 290.864,94.816 C290.864,95.3813362 291.031998,95.8426649 291.368,96.2 C291.704002,96.5573351 292.117331,96.736 292.608,96.736 Z M292.8,102.784 C293.290669,102.784 293.730665,102.706667 294.12,102.552 C294.509335,102.397333 294.810666,102.189335 295.024,101.928 C295.237334,101.666665 295.344,101.392001 295.344,101.104 C295.344,100.741332 295.210668,100.482667 294.944,100.328 C294.677332,100.173333 294.272003,100.096 293.728,100.096 L292.304,100.096 C291.973332,100.096 291.642668,100.053334 291.312,99.968 C290.746664,100.362669 290.464,100.826664 290.464,101.36 C290.464,101.797336 290.671998,102.143999 291.088,102.4 C291.504002,102.656001 292.074663,102.784 292.8,102.784 Z M298.048,92.24 L299.008,92.24 L299.104,93.664 L299.152,93.664 C299.418668,93.1626642 299.743998,92.7680014 300.128,92.48 C300.512002,92.1919986 300.922664,92.048 301.36,92.048 C301.669335,92.048 301.935999,92.1013328 302.16,92.208 L301.936,93.232 C301.658665,93.1466662 301.413334,93.104 301.2,93.104 C300.837332,93.104 300.477335,93.2533318 300.12,93.552 C299.762665,93.8506682 299.456001,94.3146635 299.2,94.944 L299.2,100 L298.048,100 L298.048,92.24 Z M305.248,100.192 C304.586663,100.192 304.042669,100.000002 303.616,99.616 C303.189331,99.2319981 302.976,98.6933368 302.976,98 C302.976,97.1573291 303.359996,96.5093356 304.128,96.056 C304.896004,95.6026644 306.122658,95.2853342 307.808,95.104 C307.808,94.495997 307.682668,93.9973353 307.432,93.608 C307.181332,93.2186647 306.752003,93.024 306.144,93.024 C305.407996,93.024 304.624004,93.3066638 303.792,93.872 L303.328,93.072 C304.352005,92.3893299 305.354662,92.048 306.336,92.048 C307.232004,92.048 307.893331,92.3279972 308.32,92.888 C308.746669,93.4480028 308.96,94.2186618 308.96,95.2 L308.96,100 L308,100 L307.904,99.056 L307.856,99.056 C306.938662,99.8133371 306.069337,100.192 305.248,100.192 Z M305.552,99.248 C305.925335,99.248 306.290665,99.1600009 306.648,98.984 C307.005335,98.8079991 307.391998,98.5333352 307.808,98.16 L307.808,95.888 C306.47466,96.0480008 305.528003,96.2933317 304.968,96.624 C304.407997,96.9546683 304.128,97.3919973 304.128,97.936 C304.128,98.3733355 304.261332,98.7013322 304.528,98.92 C304.794668,99.1386678 305.135998,99.248 305.552,99.248 Z M313.856,100.192 C313.087996,100.192 312.538668,99.9733355 312.208,99.536 C311.877332,99.0986645 311.712,98.4746707 311.712,97.664 L311.712,93.2 L310.544,93.2 L310.544,92.32 L311.76,92.24 L311.904,90.048 L312.88,90.048 L312.88,92.24 L315.008,92.24 L315.008,93.2 L312.88,93.2 L312.88,97.696 C312.88,98.2080026 312.973332,98.5919987 313.16,98.848 C313.346668,99.1040013 313.663998,99.232 314.112,99.232 C314.336001,99.232 314.634665,99.1626674 315.008,99.024 L315.248,99.904 C314.671997,100.096001 314.208002,100.192 313.856,100.192 Z M322.72,95.68 C322.72,95.9573347 322.704,96.191999 322.672,96.384 L317.312,96.384 C317.365334,97.2906712 317.645331,97.9946642 318.152,98.496 C318.658669,98.9973358 319.279996,99.248 320.016,99.248 C320.69867,99.248 321.354664,99.0400021 321.984,98.624 L322.416,99.392 C322.031998,99.6373346 321.637335,99.8319993 321.232,99.976 C320.826665,100.120001 320.373336,100.192 319.872,100.192 C319.18933,100.192 318.568003,100.029335 318.008,99.704 C317.447997,99.378665 317.005335,98.9066698 316.68,98.288 C316.354665,97.6693302 316.192,96.9493374 316.192,96.128 C316.192,95.3173293 316.354665,94.6026698 316.68,93.984 C317.005335,93.3653302 317.434664,92.8880017 317.968,92.552 C318.501336,92.2159983 319.066664,92.048 319.664,92.048 C320.624005,92.048 321.373331,92.3706634 321.912,93.016 C322.450669,93.6613366 322.72,94.5493277 322.72,95.68 Z M321.68,95.536 C321.68,94.7146626 321.504002,94.0853355 321.152,93.648 C320.799998,93.2106645 320.309336,92.992 319.68,92.992 C319.103997,92.992 318.592002,93.2106645 318.144,93.648 C317.695998,94.0853355 317.429334,94.7146626 317.344,95.536 L321.68,95.536 Z M327.28,100.192 C326.298662,100.192 325.52267,99.8346702 324.952,99.12 C324.38133,98.4053298 324.096,97.4080064 324.096,96.128 C324.096,95.3173293 324.250665,94.6026698 324.56,93.984 C324.869335,93.3653302 325.282664,92.8880017 325.8,92.552 C326.317336,92.2159983 326.874664,92.048 327.472,92.048 C327.888002,92.048 328.261332,92.1226659 328.592,92.272 C328.922668,92.4213341 329.285331,92.6506651 329.68,92.96 L329.632,91.616 L329.632,88.576 L330.784,88.576 L330.784,100 L329.824,100 L329.728,99.056 L329.68,99.056 C329.349332,99.397335 328.978669,99.671999 328.568,99.88 C328.157331,100.088001 327.728002,100.192 327.28,100.192 Z M327.536,99.2 C327.909335,99.2 328.263998,99.1093342 328.6,98.928 C328.936002,98.7466658 329.279998,98.4693352 329.632,98.096 L329.632,93.888 C329.290665,93.5893318 328.960002,93.373334 328.64,93.24 C328.319998,93.106666 327.989335,93.04 327.648,93.04 C327.210664,93.04 326.813335,93.173332 326.456,93.44 C326.098665,93.706668 325.816001,94.0746643 325.608,94.544 C325.399999,95.0133357 325.296,95.5413304 325.296,96.128 C325.296,97.0880048 325.490665,97.8399973 325.88,98.384 C326.269335,98.9280027 326.82133,99.2 327.536,99.2 Z M111.248,121 L108.64,116.456 L106.656,116.456 L106.656,121 L105.472,121 L105.472,110.488 L108.688,110.488 C111.098679,110.488 112.304,111.458657 112.304,113.4 C112.304,114.200004 112.088002,114.850664 111.656,115.352 C111.223998,115.853336 110.624004,116.183999 109.856,116.344 L112.592,121 L111.248,121 Z M106.656,115.496 L108.496,115.496 C109.349338,115.496 109.999998,115.320002 110.448,114.968 C110.896002,114.615998 111.12,114.093337 111.12,113.4 C111.12,112.706663 110.901336,112.208002 110.464,111.904 C110.026664,111.599998 109.370671,111.448 108.496,111.448 L106.656,111.448 L106.656,115.496 Z M120.288,116.68 C120.288,116.957335 120.272,117.191999 120.24,117.384 L114.88,117.384 C114.933334,118.290671 115.213331,118.994664 115.72,119.496 C116.226669,119.997336 116.847996,120.248 117.584,120.248 C118.26667,120.248 118.922664,120.040002 119.552,119.624 L119.984,120.392 C119.599998,120.637335 119.205335,120.831999 118.8,120.976 C118.394665,121.120001 117.941336,121.192 117.44,121.192 C116.75733,121.192 116.136003,121.029335 115.576,120.704 C115.015997,120.378665 114.573335,119.90667 114.248,119.288 C113.922665,118.66933 113.76,117.949337 113.76,117.128 C113.76,116.317329 113.922665,115.60267 114.248,114.984 C114.573335,114.36533 115.002664,113.888002 115.536,113.552 C116.069336,113.215998 116.634664,113.048 117.232,113.048 C118.192005,113.048 118.941331,113.370663 119.48,114.016 C120.018669,114.661337 120.288,115.549328 120.288,116.68 Z M119.248,116.536 C119.248,115.714663 119.072002,115.085336 118.72,114.648 C118.367998,114.210664 117.877336,113.992 117.248,113.992 C116.671997,113.992 116.160002,114.210664 115.712,114.648 C115.263998,115.085336 114.997334,115.714663 114.912,116.536 L119.248,116.536 Z M122.24,113.24 L123.2,113.24 L123.296,114.392 L123.344,114.392 C123.770669,113.965331 124.189331,113.634668 124.6,113.4 C125.010669,113.165332 125.461331,113.048 125.952,113.048 C126.762671,113.048 127.359998,113.301331 127.744,113.808 C128.128002,114.314669 128.32,115.069328 128.32,116.072 L128.32,121 L127.152,121 L127.152,116.216 C127.152,115.46933 127.032001,114.925335 126.792,114.584 C126.551999,114.242665 126.160003,114.072 125.616,114.072 C125.231998,114.072 124.874668,114.170666 124.544,114.368 C124.213332,114.565334 123.829336,114.882664 123.392,115.32 L123.392,121 L122.24,121 L122.24,113.24 Z M136.848,116.68 C136.848,116.957335 136.832,117.191999 136.8,117.384 L131.44,117.384 C131.493334,118.290671 131.773331,118.994664 132.28,119.496 C132.786669,119.997336 133.407996,120.248 134.144,120.248 C134.82667,120.248 135.482664,120.040002 136.112,119.624 L136.544,120.392 C136.159998,120.637335 135.765335,120.831999 135.36,120.976 C134.954665,121.120001 134.501336,121.192 134,121.192 C133.31733,121.192 132.696003,121.029335 132.136,120.704 C131.575997,120.378665 131.133335,119.90667 130.808,119.288 C130.482665,118.66933 130.32,117.949337 130.32,117.128 C130.32,116.317329 130.482665,115.60267 130.808,114.984 C131.133335,114.36533 131.562664,113.888002 132.096,113.552 C132.629336,113.215998 133.194664,113.048 133.792,113.048 C134.752005,113.048 135.501331,113.370663 136.04,114.016 C136.578669,114.661337 136.848,115.549328 136.848,116.68 Z M135.808,116.536 C135.808,115.714663 135.632002,115.085336 135.28,114.648 C134.927998,114.210664 134.437336,113.992 133.808,113.992 C133.231997,113.992 132.720002,114.210664 132.272,114.648 C131.823998,115.085336 131.557334,115.714663 131.472,116.536 L135.808,116.536 Z M137.824,113.24 L139.024,113.24 L140.24,117.864 L140.384,118.552 C140.533334,119.192003 140.64,119.677332 140.704,120.008 L140.768,120.008 C140.970668,119.175996 141.151999,118.461336 141.312,117.864 L142.56,113.24 L143.728,113.24 L144.992,117.864 L145.536,120.008 L145.6,120.008 L146.112,117.864 L147.296,113.24 L148.416,113.24 L146.304,121 L144.864,121 L143.68,116.664 L143.376,115.4 C143.354667,115.314666 143.280001,114.994669 143.152,114.44 L143.088,114.44 C142.853332,115.496005 142.666667,116.247998 142.528,116.696 L141.376,121 L140.016,121 L137.824,113.24 Z M151.92,121.192 C151.258663,121.192 150.714669,121.000002 150.288,120.616 C149.861331,120.231998 149.648,119.693337 149.648,119 C149.648,118.157329 150.031996,117.509336 150.8,117.056 C151.568004,116.602664 152.794658,116.285334 154.48,116.104 C154.48,115.495997 154.354668,114.997335 154.104,114.608 C153.853332,114.218665 153.424003,114.024 152.816,114.024 C152.079996,114.024 151.296004,114.306664 150.464,114.872 L150,114.072 C151.024005,113.38933 152.026662,113.048 153.008,113.048 C153.904004,113.048 154.565331,113.327997 154.992,113.888 C155.418669,114.448003 155.632,115.218662 155.632,116.2 L155.632,121 L154.672,121 L154.576,120.056 L154.528,120.056 C153.610662,120.813337 152.741337,121.192 151.92,121.192 Z M152.224,120.248 C152.597335,120.248 152.962665,120.160001 153.32,119.984 C153.677335,119.807999 154.063998,119.533335 154.48,119.16 L154.48,116.888 C153.14666,117.048001 152.200003,117.293332 151.64,117.624 C151.079997,117.954668 150.8,118.391997 150.8,118.936 C150.8,119.373336 150.933332,119.701332 151.2,119.92 C151.466668,120.138668 151.807998,120.248 152.224,120.248 Z M161.504,121.192 C161.141332,121.192 160.762669,121.104001 160.368,120.928 C159.973331,120.751999 159.605335,120.509335 159.264,120.2 L159.216,120.2 L159.104,121 L158.176,121 L158.176,109.576 L159.328,109.576 L159.328,112.744 L159.296,114.168 C160.160004,113.42133 160.991996,113.048 161.792,113.048 C162.784005,113.048 163.543997,113.402663 164.072,114.112 C164.600003,114.821337 164.864,115.783994 164.864,117 C164.864,117.853338 164.709335,118.59733 164.4,119.232 C164.090665,119.86667 163.680003,120.351998 163.168,120.688 C162.655997,121.024002 162.101336,121.192 161.504,121.192 Z M161.312,120.2 C161.760002,120.2 162.162665,120.069335 162.52,119.808 C162.877335,119.546665 163.157332,119.176002 163.36,118.696 C163.562668,118.215998 163.664,117.656003 163.664,117.016 C163.664,116.087995 163.490668,115.360003 163.144,114.832 C162.797332,114.303997 162.256004,114.04 161.52,114.04 C160.858663,114.04 160.128004,114.41333 159.328,115.16 L159.328,119.352 C159.669335,119.640001 160.013332,119.853333 160.36,119.992 C160.706668,120.130667 161.023999,120.2 161.312,120.2 Z M168.256,121.192 C167.818664,121.192 167.498668,121.056001 167.296,120.784 C167.093332,120.511999 166.992,120.109336 166.992,119.576 L166.992,109.576 L168.144,109.576 L168.144,119.672 C168.144,119.853334 168.178666,119.989333 168.248,120.08 C168.317334,120.170667 168.405333,120.216 168.512,120.216 C168.597334,120.216 168.693333,120.205333 168.8,120.184 L168.96,121.08 C168.757332,121.154667 168.522668,121.192 168.256,121.192 Z M176.912,116.68 C176.912,116.957335 176.896,117.191999 176.864,117.384 L171.504,117.384 C171.557334,118.290671 171.837331,118.994664 172.344,119.496 C172.850669,119.997336 173.471996,120.248 174.208,120.248 C174.89067,120.248 175.546664,120.040002 176.176,119.624 L176.608,120.392 C176.223998,120.637335 175.829335,120.831999 175.424,120.976 C175.018665,121.120001 174.565336,121.192 174.064,121.192 C173.38133,121.192 172.760003,121.029335 172.2,120.704 C171.639997,120.378665 171.197335,119.90667 170.872,119.288 C170.546665,118.66933 170.384,117.949337 170.384,117.128 C170.384,116.317329 170.546665,115.60267 170.872,114.984 C171.197335,114.36533 171.626664,113.888002 172.16,113.552 C172.693336,113.215998 173.258664,113.048 173.856,113.048 C174.816005,113.048 175.565331,113.370663 176.104,114.016 C176.642669,114.661337 176.912,115.549328 176.912,116.68 Z M175.872,116.536 C175.872,115.714663 175.696002,115.085336 175.344,114.648 C174.991998,114.210664 174.501336,113.992 173.872,113.992 C173.295997,113.992 172.784002,114.210664 172.336,114.648 C171.887998,115.085336 171.621334,115.714663 171.536,116.536 L175.872,116.536 Z M182.176,110.488 L188.144,110.488 L188.144,111.496 L183.36,111.496 L183.36,114.968 L187.392,114.968 L187.392,115.96 L183.36,115.96 L183.36,119.992 L188.304,119.992 L188.304,121 L182.176,121 L182.176,110.488 Z M191.712,121.192 C191.274664,121.192 190.954668,121.056001 190.752,120.784 C190.549332,120.511999 190.448,120.109336 190.448,119.576 L190.448,109.576 L191.6,109.576 L191.6,119.672 C191.6,119.853334 191.634666,119.989333 191.704,120.08 C191.773334,120.170667 191.861333,120.216 191.968,120.216 C192.053334,120.216 192.149333,120.205333 192.256,120.184 L192.416,121.08 C192.213332,121.154667 191.978668,121.192 191.712,121.192 Z M200.368,116.68 C200.368,116.957335 200.352,117.191999 200.32,117.384 L194.96,117.384 C195.013334,118.290671 195.293331,118.994664 195.8,119.496 C196.306669,119.997336 196.927996,120.248 197.664,120.248 C198.34667,120.248 199.002664,120.040002 199.632,119.624 L200.064,120.392 C199.679998,120.637335 199.285335,120.831999 198.88,120.976 C198.474665,121.120001 198.021336,121.192 197.52,121.192 C196.83733,121.192 196.216003,121.029335 195.656,120.704 C195.095997,120.378665 194.653335,119.90667 194.328,119.288 C194.002665,118.66933 193.84,117.949337 193.84,117.128 C193.84,116.317329 194.002665,115.60267 194.328,114.984 C194.653335,114.36533 195.082664,113.888002 195.616,113.552 C196.149336,113.215998 196.714664,113.048 197.312,113.048 C198.272005,113.048 199.021331,113.370663 199.56,114.016 C200.098669,114.661337 200.368,115.549328 200.368,116.68 Z M199.328,116.536 C199.328,115.714663 199.152002,115.085336 198.8,114.648 C198.447998,114.210664 197.957336,113.992 197.328,113.992 C196.751997,113.992 196.240002,114.210664 195.792,114.648 C195.343998,115.085336 195.077334,115.714663 194.992,116.536 L199.328,116.536 Z M205.328,121.192 C204.64533,121.192 204.029336,121.029335 203.48,120.704 C202.930664,120.378665 202.498668,119.912003 202.184,119.304 C201.869332,118.695997 201.712,117.970671 201.712,117.128 C201.712,116.295996 201.879998,115.57067 202.216,114.952 C202.552002,114.33333 203.002664,113.861335 203.568,113.536 C204.133336,113.210665 204.746663,113.048 205.408,113.048 C206.250671,113.048 207.002663,113.35733 207.664,113.976 L207.056,114.744 C206.799999,114.509332 206.544001,114.330667 206.288,114.208 C206.031999,114.085333 205.754668,114.024 205.456,114.024 C204.975998,114.024 204.544002,114.154665 204.16,114.416 C203.775998,114.677335 203.474668,115.042664 203.256,115.512 C203.037332,115.981336 202.928,116.519997 202.928,117.128 C202.928,118.056005 203.157331,118.802664 203.616,119.368 C204.074669,119.933336 204.67733,120.216 205.424,120.216 C206.096003,120.216 206.72533,119.949336 207.312,119.416 L207.824,120.2 C207.471998,120.509335 207.082669,120.751999 206.656,120.928 C206.229331,121.104001 205.786669,121.192 205.328,121.192 Z M211.936,121.192 C211.167996,121.192 210.618668,120.973336 210.288,120.536 C209.957332,120.098664 209.792,119.474671 209.792,118.664 L209.792,114.2 L208.624,114.2 L208.624,113.32 L209.84,113.24 L209.984,111.048 L210.96,111.048 L210.96,113.24 L213.088,113.24 L213.088,114.2 L210.96,114.2 L210.96,118.696 C210.96,119.208003 211.053332,119.591999 211.24,119.848 C211.426668,120.104001 211.743998,120.232 212.192,120.232 C212.416001,120.232 212.714665,120.162667 213.088,120.024 L213.328,120.904 C212.751997,121.096001 212.288002,121.192 211.936,121.192 Z M214.88,113.24 L215.84,113.24 L215.936,114.664 L215.984,114.664 C216.250668,114.162664 216.575998,113.768001 216.96,113.48 C217.344002,113.191999 217.754664,113.048 218.192,113.048 C218.501335,113.048 218.767999,113.101333 218.992,113.208 L218.768,114.232 C218.490665,114.146666 218.245334,114.104 218.032,114.104 C217.669332,114.104 217.309335,114.253332 216.952,114.552 C216.594665,114.850668 216.288001,115.314664 216.032,115.944 L216.032,121 L214.88,121 L214.88,113.24 Z M220.32,113.24 L221.472,113.24 L221.472,121 L220.32,121 L220.32,113.24 Z M220.912,111.576 C220.677332,111.576 220.485334,111.501334 220.336,111.352 C220.186666,111.202666 220.112,111.005335 220.112,110.76 C220.112,110.525332 220.186666,110.336001 220.336,110.192 C220.485334,110.047999 220.677332,109.976 220.912,109.976 C221.146668,109.976 221.338666,110.047999 221.488,110.192 C221.637334,110.336001 221.712,110.525332 221.712,110.76 C221.712,111.005335 221.637334,111.202666 221.488,111.352 C221.338666,111.501334 221.146668,111.576 220.912,111.576 Z M227.2,121.192 C226.51733,121.192 225.901336,121.029335 225.352,120.704 C224.802664,120.378665 224.370668,119.912003 224.056,119.304 C223.741332,118.695997 223.584,117.970671 223.584,117.128 C223.584,116.295996 223.751998,115.57067 224.088,114.952 C224.424002,114.33333 224.874664,113.861335 225.44,113.536 C226.005336,113.210665 226.618663,113.048 227.28,113.048 C228.122671,113.048 228.874663,113.35733 229.536,113.976 L228.928,114.744 C228.671999,114.509332 228.416001,114.330667 228.16,114.208 C227.903999,114.085333 227.626668,114.024 227.328,114.024 C226.847998,114.024 226.416002,114.154665 226.032,114.416 C225.647998,114.677335 225.346668,115.042664 225.128,115.512 C224.909332,115.981336 224.8,116.519997 224.8,117.128 C224.8,118.056005 225.029331,118.802664 225.488,119.368 C225.946669,119.933336 226.54933,120.216 227.296,120.216 C227.968003,120.216 228.59733,119.949336 229.184,119.416 L229.696,120.2 C229.343998,120.509335 228.954669,120.751999 228.528,120.928 C228.101331,121.104001 227.658669,121.192 227.2,121.192 Z M231.456,113.24 L232.608,113.24 L232.608,121 L231.456,121 L231.456,113.24 Z M232.048,111.576 C231.813332,111.576 231.621334,111.501334 231.472,111.352 C231.322666,111.202666 231.248,111.005335 231.248,110.76 C231.248,110.525332 231.322666,110.336001 231.472,110.192 C231.621334,110.047999 231.813332,109.976 232.048,109.976 C232.282668,109.976 232.474666,110.047999 232.624,110.192 C232.773334,110.336001 232.848,110.525332 232.848,110.76 C232.848,111.005335 232.773334,111.202666 232.624,111.352 C232.474666,111.501334 232.282668,111.576 232.048,111.576 Z M237.68,121.192 C236.911996,121.192 236.362668,120.973336 236.032,120.536 C235.701332,120.098664 235.536,119.474671 235.536,118.664 L235.536,114.2 L234.368,114.2 L234.368,113.32 L235.584,113.24 L235.728,111.048 L236.704,111.048 L236.704,113.24 L238.832,113.24 L238.832,114.2 L236.704,114.2 L236.704,118.696 C236.704,119.208003 236.797332,119.591999 236.984,119.848 C237.170668,120.104001 237.487998,120.232 237.936,120.232 C238.160001,120.232 238.458665,120.162667 238.832,120.024 L239.072,120.904 C238.495997,121.096001 238.032002,121.192 237.68,121.192 Z M240.64,124.392 C240.319998,124.392 240.026668,124.338667 239.76,124.232 L239.984,123.288 C240.197334,123.373334 240.399999,123.416 240.592,123.416 C241.018669,123.416 241.381332,123.256002 241.68,122.936 C241.978668,122.615998 242.218666,122.184003 242.4,121.64 L242.592,121.048 L239.456,113.24 L240.656,113.24 L242.32,117.688 L243.088,119.864 L243.152,119.864 C243.301334,119.415998 243.455999,118.925336 243.616,118.392 L243.824,117.688 L245.28,113.24 L246.416,113.24 L243.472,121.72 C243.173332,122.552004 242.802669,123.205331 242.36,123.68 C241.917331,124.154669 241.344004,124.392 240.64,124.392 Z M255.328,121.192 C254.410662,121.192 253.597337,120.973336 252.888,120.536 C252.178663,120.098664 251.626669,119.469337 251.232,118.648 C250.837331,117.826663 250.64,116.861339 250.64,115.752 C250.64,114.642661 250.842665,113.677337 251.248,112.856 C251.653335,112.034663 252.218663,111.402669 252.944,110.96 C253.669337,110.517331 254.495995,110.296 255.424,110.296 C256.586672,110.296 257.583996,110.722662 258.416,111.576 L257.76,112.36 C257.119997,111.67733 256.352004,111.336 255.456,111.336 C254.730663,111.336 254.098669,111.514665 253.56,111.872 C253.021331,112.229335 252.605335,112.735997 252.312,113.392 C252.018665,114.048003 251.872,114.823996 251.872,115.72 C251.872,117.08534 252.186664,118.165329 252.816,118.96 C253.445336,119.754671 254.319994,120.152 255.44,120.152 C255.834669,120.152 256.213332,120.090667 256.576,119.968 C256.938668,119.845333 257.231999,119.682668 257.456,119.48 L257.456,116.616 L255.152,116.616 L255.152,115.624 L258.544,115.624 L258.544,119.976 C258.191998,120.349335 257.738669,120.645332 257.184,120.864 C256.629331,121.082668 256.01067,121.192 255.328,121.192 Z M266.912,116.68 C266.912,116.957335 266.896,117.191999 266.864,117.384 L261.504,117.384 C261.557334,118.290671 261.837331,118.994664 262.344,119.496 C262.850669,119.997336 263.471996,120.248 264.208,120.248 C264.89067,120.248 265.546664,120.040002 266.176,119.624 L266.608,120.392 C266.223998,120.637335 265.829335,120.831999 265.424,120.976 C265.018665,121.120001 264.565336,121.192 264.064,121.192 C263.38133,121.192 262.760003,121.029335 262.2,120.704 C261.639997,120.378665 261.197335,119.90667 260.872,119.288 C260.546665,118.66933 260.384,117.949337 260.384,117.128 C260.384,116.317329 260.546665,115.60267 260.872,114.984 C261.197335,114.36533 261.626664,113.888002 262.16,113.552 C262.693336,113.215998 263.258664,113.048 263.856,113.048 C264.816005,113.048 265.565331,113.370663 266.104,114.016 C266.642669,114.661337 266.912,115.549328 266.912,116.68 Z M265.872,116.536 C265.872,115.714663 265.696002,115.085336 265.344,114.648 C264.991998,114.210664 264.501336,113.992 263.872,113.992 C263.295997,113.992 262.784002,114.210664 262.336,114.648 C261.887998,115.085336 261.621334,115.714663 261.536,116.536 L265.872,116.536 Z M268.864,113.24 L269.824,113.24 L269.92,114.392 L269.968,114.392 C270.394669,113.965331 270.813331,113.634668 271.224,113.4 C271.634669,113.165332 272.085331,113.048 272.576,113.048 C273.386671,113.048 273.983998,113.301331 274.368,113.808 C274.752002,114.314669 274.944,115.069328 274.944,116.072 L274.944,121 L273.776,121 L273.776,116.216 C273.776,115.46933 273.656001,114.925335 273.416,114.584 C273.175999,114.242665 272.784003,114.072 272.24,114.072 C271.855998,114.072 271.498668,114.170666 271.168,114.368 C270.837332,114.565334 270.453336,114.882664 270.016,115.32 L270.016,121 L268.864,121 L268.864,113.24 Z M283.472,116.68 C283.472,116.957335 283.456,117.191999 283.424,117.384 L278.064,117.384 C278.117334,118.290671 278.397331,118.994664 278.904,119.496 C279.410669,119.997336 280.031996,120.248 280.768,120.248 C281.45067,120.248 282.106664,120.040002 282.736,119.624 L283.168,120.392 C282.783998,120.637335 282.389335,120.831999 281.984,120.976 C281.578665,121.120001 281.125336,121.192 280.624,121.192 C279.94133,121.192 279.320003,121.029335 278.76,120.704 C278.199997,120.378665 277.757335,119.90667 277.432,119.288 C277.106665,118.66933 276.944,117.949337 276.944,117.128 C276.944,116.317329 277.106665,115.60267 277.432,114.984 C277.757335,114.36533 278.186664,113.888002 278.72,113.552 C279.253336,113.215998 279.818664,113.048 280.416,113.048 C281.376005,113.048 282.125331,113.370663 282.664,114.016 C283.202669,114.661337 283.472,115.549328 283.472,116.68 Z M282.432,116.536 C282.432,115.714663 282.256002,115.085336 281.904,114.648 C281.551998,114.210664 281.061336,113.992 280.432,113.992 C279.855997,113.992 279.344002,114.210664 278.896,114.648 C278.447998,115.085336 278.181334,115.714663 278.096,116.536 L282.432,116.536 Z M285.424,113.24 L286.384,113.24 L286.48,114.664 L286.528,114.664 C286.794668,114.162664 287.119998,113.768001 287.504,113.48 C287.888002,113.191999 288.298664,113.048 288.736,113.048 C289.045335,113.048 289.311999,113.101333 289.536,113.208 L289.312,114.232 C289.034665,114.146666 288.789334,114.104 288.576,114.104 C288.213332,114.104 287.853335,114.253332 287.496,114.552 C287.138665,114.850668 286.832001,115.314664 286.576,115.944 L286.576,121 L285.424,121 L285.424,113.24 Z M292.624,121.192 C291.962663,121.192 291.418669,121.000002 290.992,120.616 C290.565331,120.231998 290.352,119.693337 290.352,119 C290.352,118.157329 290.735996,117.509336 291.504,117.056 C292.272004,116.602664 293.498658,116.285334 295.184,116.104 C295.184,115.495997 295.058668,114.997335 294.808,114.608 C294.557332,114.218665 294.128003,114.024 293.52,114.024 C292.783996,114.024 292.000004,114.306664 291.168,114.872 L290.704,114.072 C291.728005,113.38933 292.730662,113.048 293.712,113.048 C294.608004,113.048 295.269331,113.327997 295.696,113.888 C296.122669,114.448003 296.336,115.218662 296.336,116.2 L296.336,121 L295.376,121 L295.28,120.056 L295.232,120.056 C294.314662,120.813337 293.445337,121.192 292.624,121.192 Z M292.928,120.248 C293.301335,120.248 293.666665,120.160001 294.024,119.984 C294.381335,119.807999 294.767998,119.533335 295.184,119.16 L295.184,116.888 C293.85066,117.048001 292.904003,117.293332 292.344,117.624 C291.783997,117.954668 291.504,118.391997 291.504,118.936 C291.504,119.373336 291.637332,119.701332 291.904,119.92 C292.170668,120.138668 292.511998,120.248 292.928,120.248 Z M301.232,121.192 C300.463996,121.192 299.914668,120.973336 299.584,120.536 C299.253332,120.098664 299.088,119.474671 299.088,118.664 L299.088,114.2 L297.92,114.2 L297.92,113.32 L299.136,113.24 L299.28,111.048 L300.256,111.048 L300.256,113.24 L302.384,113.24 L302.384,114.2 L300.256,114.2 L300.256,118.696 C300.256,119.208003 300.349332,119.591999 300.536,119.848 C300.722668,120.104001 301.039998,120.232 301.488,120.232 C301.712001,120.232 302.010665,120.162667 302.384,120.024 L302.624,120.904 C302.047997,121.096001 301.584002,121.192 301.232,121.192 Z M304.176,113.24 L305.328,113.24 L305.328,121 L304.176,121 L304.176,113.24 Z M304.768,111.576 C304.533332,111.576 304.341334,111.501334 304.192,111.352 C304.042666,111.202666 303.968,111.005335 303.968,110.76 C303.968,110.525332 304.042666,110.336001 304.192,110.192 C304.341334,110.047999 304.533332,109.976 304.768,109.976 C305.002668,109.976 305.194666,110.047999 305.344,110.192 C305.493334,110.336001 305.568,110.525332 305.568,110.76 C305.568,111.005335 305.493334,111.202666 305.344,111.352 C305.194666,111.501334 305.002668,111.576 304.768,111.576 Z M311.008,121.192 C310.367997,121.192 309.776003,121.029335 309.232,120.704 C308.687997,120.378665 308.253335,119.909336 307.928,119.296 C307.602665,118.682664 307.44,117.960004 307.44,117.128 C307.44,116.295996 307.602665,115.57067 307.928,114.952 C308.253335,114.33333 308.687997,113.861335 309.232,113.536 C309.776003,113.210665 310.367997,113.048 311.008,113.048 C311.648003,113.048 312.239997,113.210665 312.784,113.536 C313.328003,113.861335 313.762665,114.33333 314.088,114.952 C314.413335,115.57067 314.576,116.295996 314.576,117.128 C314.576,117.960004 314.413335,118.682664 314.088,119.296 C313.762665,119.909336 313.328003,120.378665 312.784,120.704 C312.239997,121.029335 311.648003,121.192 311.008,121.192 Z M311.008,120.216 C311.466669,120.216 311.874665,120.088001 312.232,119.832 C312.589335,119.575999 312.869332,119.213336 313.072,118.744 C313.274668,118.274664 313.376,117.736003 313.376,117.128 C313.376,116.519997 313.274668,115.981336 313.072,115.512 C312.869332,115.042664 312.589335,114.677335 312.232,114.416 C311.874665,114.154665 311.466669,114.024 311.008,114.024 C310.549331,114.024 310.141335,114.154665 309.784,114.416 C309.426665,114.677335 309.149334,115.042664 308.952,115.512 C308.754666,115.981336 308.656,116.519997 308.656,117.128 C308.656,118.056005 308.874664,118.802664 309.312,119.368 C309.749336,119.933336 310.314663,120.216 311.008,120.216 Z M316.688,113.24 L317.648,113.24 L317.744,114.392 L317.792,114.392 C318.218669,113.965331 318.637331,113.634668 319.048,113.4 C319.458669,113.165332 319.909331,113.048 320.4,113.048 C321.210671,113.048 321.807998,113.301331 322.192,113.808 C322.576002,114.314669 322.768,115.069328 322.768,116.072 L322.768,121 L321.6,121 L321.6,116.216 C321.6,115.46933 321.480001,114.925335 321.24,114.584 C320.999999,114.242665 320.608003,114.072 320.064,114.072 C319.679998,114.072 319.322668,114.170666 318.992,114.368 C318.661332,114.565334 318.277336,114.882664 317.84,115.32 L317.84,121 L316.688,121 L316.688,113.24 Z"/>
  </g>
</svg>
