<svg xmlns="http://www.w3.org/2000/svg" width="51" height="43" viewBox="0 0 51 43">
  <g fill="none" fill-rule="evenodd">
    <path fill="#F7F7F7" d="M44.055071,28.0749885 C43.0184897,27.5531455 41.7745921,27.9706199 41.2562683,29.0142726 C38.3538406,34.9632498 32.2378449,38.9294573 25.7072168,38.9294573 C17.2075816,38.9294573 10.1581652,32.771676 8.70728309,24.631125 L13.1646159,24.2136506 L6.11586296,16.385838 L0,25.3618723 L4.56095781,24.9443978 C6.21948792,35.1721874 15.0302633,43 25.7072168,43 C33.896375,43 41.4632528,38.199044 44.9872976,30.7890399 C45.5055883,29.7453538 45.0909557,28.4929305 44.0544076,28.0754561 L44.055071,28.0749885 Z M46.7501824,17.9514005 C45.0916523,7.72361096 36.280877,0 25.7074158,0 C17.5182575,0 10.26252,4.59221874 6.5308272,11.8976873 C6.01253654,12.9413734 6.42716906,14.1937967 7.46371721,14.7156731 C8.50026536,15.2375496 9.74419612,14.8200417 10.26252,13.776389 C13.1649476,7.8274118 19.177451,4.17447713 25.7074158,4.17447713 C34.1035586,4.17447713 41.1523116,10.3322584 42.7073494,18.3686078 L39.0792816,18.6817136 L45.6097771,26.0920518 L51,17.6383615 L46.7501824,17.9514005 Z"/>
    <path fill="#EEA00A" d="M27.9970627,9.88852383 L18.7447675,20.6790782 C18.1279258,21.3984923 18.6419605,22.6317173 19.669997,22.6317173 L25.0159576,22.6317173 L21.2121339,31.983838 C21.00652,32.4976818 21.6233616,32.805988 22.0345894,32.4976818 L32.2126405,20.2680361 C32.9323219,19.4458861 32.3154474,18.1099252 31.1845711,18.1099252 L26.4554521,18.1099252 L29.3340463,10.7105752 C29.5396602,9.88842517 28.5115908,9.27181267 27.997589,9.88842517 L27.9970627,9.88852383 Z"/>
  </g>
</svg>
