<svg xmlns="http://www.w3.org/2000/svg" xmlns:xlink="http://www.w3.org/1999/xlink" width="331" height="228"><defs><path id="a" d="M213 37H105v93h108v100H-1V0h214v37z"/></defs><g fill="none" fill-rule="evenodd" transform="translate(1)"><mask id="b" fill="#fff"><use xlink:href="#a"/></mask><path fill="#CCD3D7" fill-rule="nonzero" d="M211.637 77.885c.294.408.516 1.028.667 1.779.293 1.454.274 3.057-.146 3.597-.466.597-.604 1.162-.732 2.554-.137 1.313-.259 1.874-.495 2.423-.123.281-1.01 2.414-1.228 2.933a158.054 158.054 0 0 1-2.062 4.713 83.21 83.21 0 0 1-1.361 2.834c-1.397 2.759-2.538 4.516-3.459 5.121-.049.033-1.086 1.232-1.344 1.512a13.1 13.1 0 0 1-.774.782c-.402.371-.766.643-1.102.805-.409 1.963-1.626 3.24-4.022 4.809-.126.082-1.373.88-1.703 1.103-2.99 2.031-5.88 5.043-9.057 9.093-3.735 2.704-6.03 8.435-7.125 15.981a62.348 62.348 0 0 0-.636 8.342c-.013 2.013.118 3.664.225 3.829.052.081.284.177.845.323 1.216.317 1.65.552 1.587 1.339-.146 1.76-.78 8.591-.863 8.968-.257 1.175-.255 2.063.033 3.07.255.873.097 1.883-.385 3.04-.277.665-.65 1.354-1.136 2.142a47.84 47.84 0 0 1-.736 1.147c-2.17 2.587-4.055 4.066-6 4.091-1.15.015-2.244.266-3.056.73-.33.192-.618.611-.928 1.305-.072.16-.387.922-.473 1.104-.188.408-.846 1.005-1.984 1.894a180.15 180.15 0 0 1-2.403 1.801 6.982 6.982 0 0 1-.862.559c-.137.076-.594.317-.685.368-.655.368-.776.635-.572 1.723.08.419.16.636.616 1.757.682 1.675.902 2.667.63 3.853-.292 1.263-.376 2.038-.492 3.867-.175 2.763-.615 3.8-2.633 5.028-1.214.74-3.017 1.463-5.717 2.295.051.148.03.366.003.764-.185 2.77-.381 4.018-1.19 5.826-.866 1.936-2.249 3.547-4.265 4.756-.794.473-1.091 1.068-1.487 2.624-.113.441-.136.532-.192.732a7.93 7.93 0 0 1-.44 1.232c-.626 1.345-1.547 2.054-3.766 3.268-1.261.69-1.778 1.005-2.3 1.445-.682.613-.932.86-1.238 1.176-.072.074-.606.632-.762.79-1.481 1.513-2.647 2.204-4.638 2.453-.48.062-.903.082-1.675.096-1.173.02-1.639.048-2.2.159-.281.208-.463.373-.512.413-.373.303-.867.292-1.676.124-.94-.213-1.018-.23-1.118-.23-.357-.003-.936.064-1.818.204-.534.085-2.757.47-2.791.475-.94.16-1.714.28-2.46.383-3.511.48-5.862.449-7.177-.353-1.158-.711-2.657-4.065-2.538-5.66.16-2.095-.634-4.996-2.06-8.194a39.316 39.316 0 0 0-1.665-3.313 19.034 19.034 0 0 0-.588-.977c-.552-.69-1.692-1.573-1.826-1.606-1.412-1.21-1.76-2.332-2.09-4.968-.177-1.352-.269-1.86-.398-2.336a23.01 23.01 0 0 1-.218-.882c-.2-.853-.313-1.247-.513-1.71-.476-1.113-.673-2.195-.698-3.504-.008-.469 0-.827.032-1.685.035-.946.044-1.394.025-1.952-.041-1.18-.548-1.95-1.69-2.735-1.022-.7-1.763-2.056-2.315-3.898-.447-1.49-.882-4.102-.77-3.919-.27-.44-.562-.866-.923-1.354-.197-.267-.897-1.182-1.033-1.365-1.364-1.828-1.98-3.183-2.115-5.19-.092-1.364.133-2.887.637-4.801.168-.634.35-1.259.627-2.17.663-2.18.676-2.223.861-2.953.32-1.256.874-2.18 2.15-3.879 1.288-1.713 1.761-2.459 2.11-3.449.208-.59.081-1.423-.35-2.442a13.944 13.944 0 0 0-1.079-1.992c-.436-.685-1.561-2.241-1.615-2.35-.907-1.826-.615-2.65.622-3.337.459-.255.574-.358.61-.528.065-.315-.132-.903-.719-1.845-.478-.77-1.12-2.068-2.293-4.569-1.759-3.752-2.153-4.565-2.514-5.1-.094-.142-.523-.565-1.29-1.272-.265-.244-1.98-1.803-2.504-2.287-2.429-2.263-3.579-3.474-3.935-4.212-.272-1.153-.023-2.865.974-8.463.916-5.152 1.23-7.405 1.035-7.832-1.247-2.738-2.45-4.175-3.944-3.87-.24.049-.51.11-.893.202-.021.005-.805.194-1.048.25-.85.2-1.516.338-2.17.437-3.94.601-6.234-.519-6.1-4.287.025-.697-.355-1.03-1.399-1.297-2.334-.69-4.392-.847-6.656-.558-2.584.33-4.885 1.061-9.174 2.733-2.717 1.06-3.137 1.22-4.26 1.608-2.328-.004-4.395-.472-5.4-1.436-.218.063-.466.15-.9.313l-.618.232c-.27.101-.495.185-.725.269-.6.219-1.161.414-1.735.599-2.84.916-5.547 1.454-8.253 1.488-5.218.068-10.413-3.64-15.404-9.85-1.706-2.123-3.263-4.388-4.667-6.686a69.86 69.86 0 0 1-1.294-2.207c-.117-.207-.112-.199-.345-.62a11.204 11.204 0 0 0-.6-1.014 20.534 20.534 0 0 0-.472-.672c-1.212-1.666-1.343-1.87-1.391-2.439-.08-.936-.523-1.344-1.835-1.96-2.31-1.08-2.96-2.094-2.063-4.637.305-1.488.023-2.58-.587-3.752-.135-.26-.878-1.46-.878-1.672-.004-1.834.533-2.934 1.55-3.715.208-.161.855-.581.814-.553.536-1.254.8-1.915 1.447-3.295.714-1.524.98-2.232 1.121-3.144-.064-.731-.073-1.05-.098-1.688a36.53 36.53 0 0 1-.037-1.423c-.003-.92.061-1.696.224-2.487.275-1.355.193-1.881-.497-2.94-.962-1.47-.97-3.151-.206-5.031.538-1.324 1.391-2.645 2.727-4.377.306-.396 1.387-1.764 1.298-1.65.48-.614.803-1.043 1.067-1.43.417-.612.687-.83 1.38-1.245.45-.27.616-.46.818-1.075.657-2.002 1.241-3.044 1.963-3.577.313-.23.578-.34 1.074-.482.689-.199.951-.314 1.382-.673.245-.205.391-.472.657-1.135.32-.793.51-1.153.849-1.503.815-.837 1.641-1.222 3.555-1.852 1.444-.476 2.075-.738 2.692-1.158.034-.023.644-.331.957-.503a14.856 14.856 0 0 0 1.786-1.147c.834-.63 1.503-1.301 1.951-2.006.365-.558.432-.664.491-.766.238-.408.34-.732.34-1.164 0-1.567.302-2.553 1.02-3.776.011-.02.61-1.005.786-1.32.16-.29.301-.57.432-.863 1.017-2.294 2.486-3.162 6.005-4.231.816-.248.855-.26 1.163-.358.675-.219.995-.633 1.592-1.815.227-.451.335-.653.475-.886.546-.903 1.126-1.527 2.316-2.617.55-.504.723-.667.891-.829 1.107.104 1.413.498 1.876 1.385.627 1.198.963 1.508 1.681 1.46.215-.016.565-.184 1.055-.509.417-.286.511-.352.672-.464.558-.38.749-.494.922-.573.619-.283 1.2-.098 1.255.641.064.923 1.192 1.25 2.13.987l1.063-.295c.428-.12.766-.215 1.093-.309 1.215-.349 2.153-.648 2.951-.95.326-.125.552-.347 1.01-.942.53-.69.805-.978 1.256-1.22 1.065-.577 2.198-.708 4.243-.666 1.821.042 2.422.03 3.09-.088 1.195-.211 1.979-.083 3.32.374 1.326.445 1.94.511 2.801.277.188-.052.384-.14.645-.284C75.9.611 76.51.407 77.39.53c.41.052.588.223 1.32 1.057.346.39.505.552.637.653 1.55-.628 6.185-1.852 6.93-1.469.312.161.708.208 1.22.157.268-.027.532-.074.949-.162.749-.159.846-.178 1.122-.197l.529.419c.245 1.513-.385 2.512-1.66 3.321-.189.12-.76.442-.968.561.912.605 1.45.688 1.6.578l.683.085c.872 1.06.35 1.84-1.594 3.648-.995.93-1.383 1.37-1.546 1.763-.155.373-.05.628.521.953.326.185.699.298 1.571.506 1.324.314 1.877.51 2.367.941.79.697 1.411.805 3.017.722 1.084-.057 1.604-.044 2.28.119.291.064 1.597.31 2.022.406 1.518.347 2.468.802 2.865 1.625.087.183.167.371.277.642-.03-.073.207.518.272.674.315.76.571 1.22.848 1.47.113.104.53.208 1.385.329-.021-.003.745.103.977.137.402.06.745.119 1.074.187.848.175 1.555.404 2.158.727.159.085 1.02.59 1.278.733.47.258.878.454 1.26.594.87.32 1.477.306 1.837-.053.289-.287.482-.565.599-.843.275-.658.218-1.011-.328-2.874.308-3.37 7.212-5.008 9.65-3.367.497.334 1.185.682 2.86 1.475 1.901.9 2.787 1.344 3.252 1.717 2.48-1.312 8.53.042 10.774 1.863.552-.467.746-.717.769-.747.383-.49.66-.771 1.02-.969 2.053-1.125 4.683-1.556 6.496-.583.376.62.395.683.481.98.416.912.576 1.25.708 1.602.27.719.4 1.356.567 2.564.065.474.098.717.136.972.137.943.612 1.787 1.624 3.106a150.553 150.553 0 0 1 1.152 1.508l.668.883c3.027 4.006 4.54 6.257 5.876 9.037.046.096.114.31.28.86l.45 1.495c.384 1.253.664 2.063.689 2.088 5.591 6.075 6.499 7.282 6.37 8.533-.152.846-.178 1.085-.17 1.408.01.467.16 1.035.435 1.71.158.388.35.796.605 1.293.093.182.552 1.057.664 1.28.508 1.018 1.108 1.49 2.268 1.811.924.256 1.559 1.254 2.225 2.995.123.32.697 1.965.822 2.25.038.086.821 1.905 1.027 2.345.973 2.084 1.861 2.902 4.006 3.405.966.222 1.366.595 1.8 1.405.36.658.624.893 1.293 1.09.714.213 5.653 5.085 6.664 6.406-.107.907-.495 1.132-1.324 1.47.236.409.434.474.624.572.228.12.457.306.811.636.618.582.764.716.91.845 1.472 1.293 2.705 1.722 4.147 1.076 3.147-1.41 5.73-1.963 11.462-2.746l.868-.119c.409-.057 1.005-.342 1.753-.825.25-.162.515-.344.806-.553.302-.217 1.371-1.015 1.579-1.161.6-.424 1.223-.253 1.648.337zm-25.536 1.99a.06.06 0 0 0-.017-.016.56.56 0 0 0 .006.003l.01.014zm-37.874-61.234c-.044-.005-.112-.004-.226-.008l.226.008zm.084.057c.008.017.017.04.028.07a2.357 2.357 0 0 1-.022-.06l-.006-.01zM41.382 101.86a.357.357 0 0 0 .01 0h-.01zM152.07 200.5l-.077.024c.057-.018.094-.032.118-.04l-.041.016zm56.924-120.977c-.303.217-.58.408-.846.58-.862.557-1.566.893-2.16.976l-.869.119c-5.64.77-8.156 1.309-11.188 2.667-1.881.843-3.482.286-5.215-1.237a19.35 19.35 0 0 1-.5-.457c-.722-.677-.903-.824-1.026-.889-.102-.053-.267-.107-.605-.202-.578-.161-.796-.234-1.007-.358-.463-.272-.599-.78-.184-1.198.128-.132.303-.229.581-.35.144-.063.769-.314.677-.276.266-.109.475-.207.619-.284-1.348-1.546-5.47-5.59-5.865-5.707-.94-.277-1.406-.691-1.8-1.409-.4-.746-.59-.922-1.236-1.07-2.47-.58-3.59-1.613-4.685-3.957-.213-.457-1.003-2.292-1.036-2.364-.144-.328-.731-2.009-.841-2.297-.547-1.43-1.071-2.254-1.557-2.388-1.427-.395-2.258-1.05-2.896-2.327-.107-.212-.564-1.083-.66-1.273a17.62 17.62 0 0 1-.641-1.37c-.318-.779-.495-1.455-.508-2.064-.01-.404.023-.71.098-1.103.158-1.227-.787-2.483-6.032-8.18-.191-.204-.4-.81-.842-2.248-.182-.596-.534-1.77-.521-1.728a18.742 18.742 0 0 0-.224-.715c-1.3-2.703-2.784-4.912-5.773-8.868a1674.364 1674.364 0 0 0-1.15-1.52c-.139-.185-.667-.867-.665-.866-1.11-1.447-1.651-2.408-1.82-3.569a81.594 81.594 0 0 1-.137-.98c-.158-1.14-.276-1.719-.513-2.348a5.88 5.88 0 0 0-.359-.777c-.248-.481-.29-.616-.352-.827-1.606-1.204-3.825-.82-5.558.13-.206.112-.41.32-.713.707-.386.494-.478.602-.57.698-.501.52-1.061.662-1.617.21-2.048-1.663-8.179-2.963-9.905-1.61l-.719-.107c-.177-.254-1.058-.724-3.184-1.73-1.75-.828-2.448-1.18-3.005-1.556-1.865-1.255-7.725.11-8.158 2.168.648 2.212.72 2.663.317 3.63-.17.405-.439.79-.817 1.166-.702.7-1.692.722-2.886.283a10.14 10.14 0 0 1-1.399-.658c-.276-.152-1.13-.653-1.267-.726-.506-.271-1.127-.472-1.888-.63-.31-.064-.634-.12-1.019-.177-.226-.033-.987-.138-.97-.136-1.11-.157-1.588-.276-1.92-.58-.418-.38-.727-.934-1.097-1.826-.067-.163-.307-.76-.275-.683-.467-1.03-1.208-1.385-2.438-1.666-.402-.092-1.693-.334-1.727-.341-.86-.202-1.309-.213-2.3-.16-1.847.096-2.687-.051-3.73-.97-.319-.281-.785-.446-1.842-.697-1.067-.253-1.49-.382-1.929-.632-.99-.563-1.31-1.34-.95-2.206.238-.574.681-1.076 1.597-1.932 1.31-1.22 1.782-1.774 1.801-2.15-.51.072-1.125-.091-1.68-.404-.903-.508-1.387-1.309-.607-1.962.162-.107.916-.53 1.1-.647.81-.514 1.23-1.05 1.247-1.824-.943.199-1.237.251-1.552.282-.686.069-1.266 0-1.776-.262-.343-.177-4.82 1.006-6.052 1.575-.57.269-.952-.023-1.696-.862-.558-.635-.781-.849-.813-.853-.607-.084-1.035.06-1.84.526-.71.4-.972.517-1.251.593-1.086.296-1.885.209-3.066-.185-1.517-.517-2.152-.62-3.146-.445-.757.133-1.396.147-2.89.111-2.27-.047-3.276.07-4.141.538-.286.154-.493.37-.905.907-.602.782-.922 1.096-1.48 1.309-.83.315-1.792.621-3.031.977-.33.095-.67.191-1.101.311l-1.062.295c-1.383.388-3.091-.067-3.365-1.62-.133.07-.298.185-.961.648-1 .669-1.465.893-1.908.924-1.233.083-1.844-.48-2.53-1.791-.342-.655-.51-.918-.676-1.07a131.9 131.9 0 0 1-.636.586c-1.124 1.029-1.652 1.599-2.135 2.397-.123.203-.222.39-.418.779-.737 1.459-1.173 2.024-2.113 2.328-.402.129-.442.141-1.264.39-3.26.99-4.52 1.735-5.382 3.68-.144.323-.298.63-.472.943a66.526 66.526 0 0 1-.798 1.34c-.633 1.08-.883 1.894-.883 3.271 0 .624-.153 1.116-.475 1.668-.107.183-.603.942-.521.815-.518.81-1.265 1.558-2.182 2.251-1.02.77-3.267 2.008-2.785 1.68-.717.488-1.412.776-2.767 1.223-1.934.636-2.661.975-3.324 1.656-.22.227-.365.501-.595 1.072-.37.922-.57 1.287-.986 1.636-.564.47-.935.633-1.746.866-.39.113-.565.184-.758.327-.514.379-1.009 1.263-1.607 3.084-.282.858-.609 1.234-1.254 1.62-.579.348-.752.487-1.068.951-.279.41-.613.854-1.107 1.484.086-.11-.99 1.253-1.292 1.644-1.285 1.666-2.097 2.923-2.593 4.142-.651 1.602-.644 2.945.117 4.108.842 1.29.965 2.085.64 3.687-.148.719-.206 1.428-.204 2.284 0 .378.009.66.037 1.388.022.6.032.923.036 1.284-.109 1.628-.4 2.403-1.109 3.915-.66 1.41-.905 2.022-1.083 2.826-.088.403-.326.673-.745.963.012-.009-.603.39-.774.522C.89 66.95.497 67.755.5 69.28c.43.601.589.872.766 1.212.701 1.349 1.034 2.64.812 3.898-.866 2.622-.52 3.16 1.239 3.983 1.742.817 2.423 1.445 2.542 2.845.024.28.211.571 1.204 1.935.201.277.353.493.495.704.214.32.386.608.524.88.386.664 1.316 2.308 1.736 2.995 1.384 2.264 2.917 4.496 4.594 6.582 4.815 5.991 9.785 9.539 14.611 9.476 2.593-.033 5.207-.552 7.958-1.44a46.86 46.86 0 0 0 1.7-.586c.227-.083.45-.166.717-.266l.619-.233c1.528-.571 1.531-.572 1.842-.203.663.778 2.581 1.248 4.565 1.289 1.045-.362 1.507-.54 4.14-1.565 4.363-1.702 6.72-2.45 9.41-2.794 2.364-.302 4.539-.145 6.6.544 1.876.407 2.626 1.064 2.582 2.338-.106 2.98 1.542 3.783 4.95 3.264a26.318 26.318 0 0 0 2.09-.422c.24-.056 1.022-.245 1.045-.25.395-.094.675-.158.927-.208 2.181-.446 3.605 1.254 5.053 4.435.335.736.08 2.574-.946 8.335-.929 5.221-1.216 7.191-1.06 7.756.39.889 1.499 2.044 3.262 3.688.96.888 2.673 2.447 2.941 2.694.858.79 1.284 1.21 1.444 1.45.406.602.773 1.36 2.509 5.063 1.232 2.625 1.869 3.914 2.316 4.635.711 1.14.98 1.945.849 2.576-.115.554-.402.81-1.058 1.174-.83.46-.919.712-.258 2.043.01.02 1.088 1.512 1.563 2.257.479.752.869 1.462 1.156 2.14.52 1.227.682 2.29.373 3.165-.393 1.117-.905 1.924-2.105 3.518-1.348 1.795-1.851 2.636-2.129 3.723-.19.753-.203.794-.874 2.998a57.14 57.14 0 0 0-.616 2.134c-.479 1.818-.69 3.244-.606 4.478.12 1.785.66 2.973 1.918 4.66.131.176.833 1.094 1.036 1.368.378.51.686.96.975 1.433.004.007.472 2.814.872 4.148.492 1.641 1.137 2.823 1.923 3.36 1.384.95 2.07 1.995 2.123 3.526.02.59.012 1.054-.025 2.023-.03.84-.04 1.186-.03 1.63.021 1.188.195 2.146.616 3.126.23.534.354.97.568 1.877.106.451.146.616.21.849a13.8 13.8 0 0 1 .338 1.794c.026.188.042.315.087.68.294 2.358.586 3.323 1.5 4.186.496.247 1.542 1.073 1.923 1.525 1.454 1.265 5.102 9.725 4.81 13.546-.093 1.24 1.244 4.229 2.063 4.732 1.038.633 3.25.663 6.52.215.733-.1 1.498-.22 2.428-.378.028-.005 2.26-.39 2.8-.476.937-.15 1.554-.22 1.985-.217.214.001.244.008 1.005.183.797.17 1.113.177 1.146.15.359-.315.453-.387.548-.449 1.044-.299 1.549-.33 2.673-.348.845-.015 1.24-.034 1.674-.09 1.737-.218 2.713-.796 4.05-2.16.15-.154.682-.709.758-.787.318-.328.58-.588.854-.84 1.048-.902 1.602-1.241 2.826-1.91 2.129-1.164 2.931-1.782 3.435-2.865a6.98 6.98 0 0 0 .384-1.08c.053-.19.076-.277.186-.708.457-1.798.851-2.585 1.943-3.236 1.834-1.1 3.081-2.552 3.865-4.306.744-1.664.928-2.831 1.106-5.484.082-1.23.13-1.48.624-1.63 2.67-.82 4.428-1.523 5.567-2.217 1.684-1.025 1.999-1.767 2.155-4.237.12-1.881.208-2.698.515-4.028.212-.924.028-1.757-.581-3.252-.489-1.201-.574-1.432-.673-1.948-.282-1.507.032-2.2 1.065-2.78.106-.06.565-.302.688-.37a6.21 6.21 0 0 0 .743-.481c-.014.01 1.482-1.093 2.055-1.532 1.3-1.013 1.942-1.596 2.032-1.79.074-.16.385-.91.466-1.09.39-.872.777-1.435 1.342-1.762.976-.56 2.234-.848 3.542-.865 1.55-.02 3.27-1.373 5.105-3.6.462-.637.599-.849.793-1.163.462-.747.81-1.394 1.064-2.002.402-.965.527-1.762.347-2.377-.337-1.18-.34-2.233-.05-3.562.068-.307.71-7.209.844-8.835.002-.023-.167-.114-.81-.282-.886-.231-1.215-.366-1.466-.757-.574-.887-.534-7.369.262-12.856 1.13-7.78 3.504-13.722 7.274-16.369 3.288-4.209 6.242-7.286 9.336-9.39.345-.232 1.6-1.036 1.717-1.112 2.18-1.428 3.238-2.537 3.5-4.035.054-.34.321-.682.63-.835.236-.114.529-.332.864-.642.223-.205.46-.445.717-.724.116-.127 1.344-1.546 1.527-1.669.717-.47 1.81-2.153 3.118-4.738.43-.849.879-1.785 1.345-2.8.666-1.45 1.328-2.971 2.05-4.684.214-.511 1.105-2.654 1.231-2.943.19-.439.292-.912.365-1.584.197-2.11.369-2.812.991-3.61.174-.224.191-1.611-.045-2.785-.126-.624-.304-1.122-.498-1.391-.085-.119-.268-.29-.55-.514.096.545-.968 1.34-1.283 1.566zm-25.091 42.026l-.005.012a.954.954 0 0 1 .056-.104c-.023.03-.03.046-.051.092zm-.006.015zM28.816 21.73zm118.255-3.666a.461.461 0 0 0-.005-.014l.005.014z" mask="url(#b)"/><path fill="#F7F7F7" d="M108.376 100.192c-.875 0-1.656-.219-2.344-.656-.688-.437-1.227-1.067-1.616-1.888-.39-.821-.584-1.787-.584-2.896 0-1.099.197-2.061.592-2.888.395-.827.944-1.461 1.648-1.904.704-.443 1.499-.664 2.384-.664.587 0 1.125.123 1.616.368.49.245.901.55 1.232.912l-.656.784c-.608-.683-1.333-1.024-2.176-1.024-.683 0-1.28.179-1.792.536-.512.357-.91.864-1.192 1.52-.283.656-.424 1.432-.424 2.328 0 .896.136 1.677.408 2.344.272.667.661 1.181 1.168 1.544.507.363 1.101.544 1.784.544.49 0 .936-.101 1.336-.304.4-.203.787-.507 1.16-.912l.656.736c-.427.501-.901.88-1.424 1.136-.523.256-1.115.384-1.776.384zm6.352 0c-.437 0-.757-.136-.96-.408-.203-.272-.304-.675-.304-1.208v-10h1.152v10.096c0 .181.035.317.104.408a.32.32 0 0 0 .264.136c.085 0 .181-.01.288-.032l.16.896a2.031 2.031 0 0 1-.704.112zm2.736-7.952h1.152V100h-1.152v-7.76zm.592-1.664a.78.78 0 0 1-.576-.224c-.15-.15-.224-.347-.224-.592 0-.235.075-.424.224-.568a.795.795 0 0 1 .576-.216c.235 0 .427.072.576.216a.75.75 0 0 1 .224.568c0 .245-.075.443-.224.592a.78.78 0 0 1-.576.224zm3.28 1.664h.96l.096 1.152h.048c.821-.896 1.627-1.344 2.416-1.344 1.099 0 1.813.501 2.144 1.504.448-.49.88-.864 1.296-1.12a2.414 2.414 0 0 1 1.28-.384c1.568 0 2.352 1.008 2.352 3.024V100h-1.168v-4.784c0-.747-.123-1.29-.368-1.632-.245-.341-.63-.512-1.152-.512-.608 0-1.285.416-2.032 1.248V100h-1.168v-4.784c0-.736-.123-1.277-.368-1.624-.245-.347-.624-.52-1.136-.52-.608 0-1.29.416-2.048 1.248V100h-1.152v-7.76zm14.96 7.952c-.661 0-1.205-.192-1.632-.576-.427-.384-.64-.923-.64-1.616 0-.843.384-1.49 1.152-1.944.768-.453 1.995-.77 3.68-.952 0-.608-.125-1.107-.376-1.496-.25-.39-.68-.584-1.288-.584-.736 0-1.52.283-2.352.848l-.464-.8c1.024-.683 2.027-1.024 3.008-1.024.896 0 1.557.28 1.984.84.427.56.64 1.33.64 2.312v4.8h-.96l-.096-.944h-.048c-.917.757-1.787 1.136-2.608 1.136zm.304-.944c.373 0 .739-.088 1.096-.264.357-.176.744-.45 1.16-.824v-2.272c-1.333.16-2.28.405-2.84.736-.56.33-.84.768-.84 1.312 0 .437.133.765.4.984.267.219.608.328 1.024.328zm8.304.944c-.768 0-1.317-.219-1.648-.656-.33-.437-.496-1.061-.496-1.872V93.2h-1.168v-.88l1.216-.08.144-2.192h.976v2.192h2.128v.96h-2.128v4.496c0 .512.093.896.28 1.152.187.256.504.384.952.384.224 0 .523-.07.896-.208l.24.88c-.576.192-1.04.288-1.392.288zm8.864-4.512c0 .277-.016.512-.048.704h-5.36c.053.907.333 1.61.84 2.112.507.501 1.128.752 1.864.752.683 0 1.339-.208 1.968-.624l.432.768c-.384.245-.779.44-1.184.584a4.042 4.042 0 0 1-1.36.216 3.643 3.643 0 0 1-1.864-.488c-.56-.325-1.003-.797-1.328-1.416-.325-.619-.488-1.339-.488-2.16 0-.81.163-1.525.488-2.144.325-.619.755-1.096 1.288-1.432a3.13 3.13 0 0 1 1.696-.504c.96 0 1.71.323 2.248.968.539.645.808 1.533.808 2.664zm-1.04-.144c0-.821-.176-1.45-.528-1.888-.352-.437-.843-.656-1.472-.656-.576 0-1.088.219-1.536.656-.448.437-.715 1.067-.8 1.888h4.336zm6.304-6.048h1.184V100h-1.184V89.488zm4 2.752h.96l.096 1.152h.048c.427-.427.845-.757 1.256-.992.41-.235.861-.352 1.352-.352.81 0 1.408.253 1.792.76.384.507.576 1.261.576 2.264V100h-1.168v-4.784c0-.747-.12-1.29-.36-1.632-.24-.341-.632-.512-1.176-.512a2.06 2.06 0 0 0-1.072.296c-.33.197-.715.515-1.152.952V100h-1.152v-7.76zm11.152-2.896c-.747 0-1.12.523-1.12 1.568v1.328h1.68v.96h-1.68v6.8h-1.168v-6.8h-1.056v-.88l1.056-.08v-1.344c0-.8.184-1.419.552-1.856.368-.437.915-.656 1.64-.656.416 0 .832.085 1.248.256l-.256.896a2.259 2.259 0 0 0-.896-.192zm5.04 10.848a3.4 3.4 0 0 1-1.776-.488c-.544-.325-.979-.795-1.304-1.408-.325-.613-.488-1.336-.488-2.168 0-.832.163-1.557.488-2.176.325-.619.76-1.09 1.304-1.416a3.398 3.398 0 0 1 1.776-.488 3.4 3.4 0 0 1 1.776.488c.544.325.979.797 1.304 1.416.325.619.488 1.344.488 2.176 0 .832-.163 1.555-.488 2.168-.325.613-.76 1.083-1.304 1.408a3.398 3.398 0 0 1-1.776.488zm0-.976c.459 0 .867-.128 1.224-.384s.637-.619.84-1.088c.203-.47.304-1.008.304-1.616 0-.608-.101-1.147-.304-1.616-.203-.47-.483-.835-.84-1.096a2.02 2.02 0 0 0-1.224-.392c-.459 0-.867.13-1.224.392-.357.261-.635.627-.832 1.096-.197.47-.296 1.008-.296 1.616 0 .928.219 1.675.656 2.24.437.565 1.003.848 1.696.848zm5.68-6.976h.96l.096 1.424h.048c.267-.501.592-.896.976-1.184.384-.288.795-.432 1.232-.432.31 0 .576.053.8.16l-.224 1.024a2.543 2.543 0 0 0-.736-.128c-.363 0-.723.15-1.08.448-.357.299-.664.763-.92 1.392V100h-1.152v-7.76zm5.44 0h.96l.096 1.152h.048c.821-.896 1.627-1.344 2.416-1.344 1.099 0 1.813.501 2.144 1.504.448-.49.88-.864 1.296-1.12a2.414 2.414 0 0 1 1.28-.384c1.568 0 2.352 1.008 2.352 3.024V100h-1.168v-4.784c0-.747-.123-1.29-.368-1.632-.245-.341-.63-.512-1.152-.512-.608 0-1.285.416-2.032 1.248V100h-1.168v-4.784c0-.736-.123-1.277-.368-1.624-.245-.347-.624-.52-1.136-.52-.608 0-1.29.416-2.048 1.248V100h-1.152v-7.76zm14.96 7.952c-.661 0-1.205-.192-1.632-.576-.427-.384-.64-.923-.64-1.616 0-.843.384-1.49 1.152-1.944.768-.453 1.995-.77 3.68-.952 0-.608-.125-1.107-.376-1.496-.25-.39-.68-.584-1.288-.584-.736 0-1.52.283-2.352.848l-.464-.8c1.024-.683 2.027-1.024 3.008-1.024.896 0 1.557.28 1.984.84.427.56.64 1.33.64 2.312v4.8h-.96l-.096-.944h-.048c-.917.757-1.787 1.136-2.608 1.136zm.304-.944c.373 0 .739-.088 1.096-.264.357-.176.744-.45 1.16-.824v-2.272c-1.333.16-2.28.405-2.84.736-.56.33-.84.768-.84 1.312 0 .437.133.765.4.984.267.219.608.328 1.024.328zm8.304.944c-.768 0-1.317-.219-1.648-.656-.33-.437-.496-1.061-.496-1.872V93.2H210.6v-.88l1.216-.08.144-2.192h.976v2.192h2.128v.96h-2.128v4.496c0 .512.093.896.28 1.152.187.256.504.384.952.384.224 0 .523-.07.896-.208l.24.88c-.576.192-1.04.288-1.392.288zm2.944-7.952h1.152V100h-1.152v-7.76zm.592-1.664a.78.78 0 0 1-.576-.224c-.15-.15-.224-.347-.224-.592 0-.235.075-.424.224-.568a.795.795 0 0 1 .576-.216c.235 0 .427.072.576.216a.75.75 0 0 1 .224.568c0 .245-.075.443-.224.592a.78.78 0 0 1-.576.224zm6.24 9.616a3.4 3.4 0 0 1-1.776-.488c-.544-.325-.979-.795-1.304-1.408-.325-.613-.488-1.336-.488-2.168 0-.832.163-1.557.488-2.176.325-.619.76-1.09 1.304-1.416a3.398 3.398 0 0 1 1.776-.488 3.4 3.4 0 0 1 1.776.488c.544.325.979.797 1.304 1.416.325.619.488 1.344.488 2.176 0 .832-.163 1.555-.488 2.168-.325.613-.76 1.083-1.304 1.408a3.398 3.398 0 0 1-1.776.488zm0-.976c.459 0 .867-.128 1.224-.384s.637-.619.84-1.088c.203-.47.304-1.008.304-1.616 0-.608-.101-1.147-.304-1.616-.203-.47-.483-.835-.84-1.096a2.02 2.02 0 0 0-1.224-.392c-.459 0-.867.13-1.224.392-.357.261-.635.627-.832 1.096-.197.47-.296 1.008-.296 1.616 0 .928.219 1.675.656 2.24.437.565 1.003.848 1.696.848zm5.68-6.976h.96l.096 1.152h.048c.427-.427.845-.757 1.256-.992.41-.235.861-.352 1.352-.352.81 0 1.408.253 1.792.76.384.507.576 1.261.576 2.264V100h-1.168v-4.784c0-.747-.12-1.29-.36-1.632-.24-.341-.632-.512-1.176-.512a2.06 2.06 0 0 0-1.072.296c-.33.197-.715.515-1.152.952V100h-1.152v-7.76zm14.352-2.896c-.747 0-1.12.523-1.12 1.568v1.328h1.68v.96h-1.68v6.8h-1.168v-6.8h-1.056v-.88l1.056-.08v-1.344c0-.8.184-1.419.552-1.856.368-.437.915-.656 1.64-.656.416 0 .832.085 1.248.256l-.256.896a2.259 2.259 0 0 0-.896-.192zm5.04 10.848a3.4 3.4 0 0 1-1.776-.488c-.544-.325-.979-.795-1.304-1.408-.325-.613-.488-1.336-.488-2.168 0-.832.163-1.557.488-2.176.325-.619.76-1.09 1.304-1.416a3.398 3.398 0 0 1 1.776-.488 3.4 3.4 0 0 1 1.776.488c.544.325.979.797 1.304 1.416.325.619.488 1.344.488 2.176 0 .832-.163 1.555-.488 2.168-.325.613-.76 1.083-1.304 1.408a3.398 3.398 0 0 1-1.776.488zm0-.976c.459 0 .867-.128 1.224-.384s.637-.619.84-1.088c.203-.47.304-1.008.304-1.616 0-.608-.101-1.147-.304-1.616-.203-.47-.483-.835-.84-1.096a2.02 2.02 0 0 0-1.224-.392c-.459 0-.867.13-1.224.392-.357.261-.635.627-.832 1.096-.197.47-.296 1.008-.296 1.616 0 .928.219 1.675.656 2.24.437.565 1.003.848 1.696.848zm5.68-6.976h.96l.096 1.424h.048c.267-.501.592-.896.976-1.184.384-.288.795-.432 1.232-.432.31 0 .576.053.8.16l-.224 1.024a2.543 2.543 0 0 0-.736-.128c-.363 0-.723.15-1.08.448-.357.299-.664.763-.92 1.392V100h-1.152v-7.76zm8.752-2.752h1.184V100h-1.184V89.488zm4 2.752h.96l.096 1.152h.048c.427-.427.845-.757 1.256-.992.41-.235.861-.352 1.352-.352.81 0 1.408.253 1.792.76.384.507.576 1.261.576 2.264V100h-1.168v-4.784c0-.747-.12-1.29-.36-1.632-.24-.341-.632-.512-1.176-.512a2.06 2.06 0 0 0-1.072.296c-.33.197-.715.515-1.152.952V100h-1.152v-7.76zm11.04 7.952c-.768 0-1.317-.219-1.648-.656-.33-.437-.496-1.061-.496-1.872V93.2h-1.168v-.88l1.216-.08.144-2.192h.976v2.192h2.128v.96h-2.128v4.496c0 .512.093.896.28 1.152.187.256.504.384.952.384.224 0 .523-.07.896-.208l.24.88c-.576.192-1.04.288-1.392.288zm8.864-4.512c0 .277-.016.512-.048.704h-5.36c.053.907.333 1.61.84 2.112.507.501 1.128.752 1.864.752.683 0 1.339-.208 1.968-.624l.432.768c-.384.245-.779.44-1.184.584a4.042 4.042 0 0 1-1.36.216 3.643 3.643 0 0 1-1.864-.488c-.56-.325-1.003-.797-1.328-1.416-.325-.619-.488-1.339-.488-2.16 0-.81.163-1.525.488-2.144.325-.619.755-1.096 1.288-1.432a3.13 3.13 0 0 1 1.696-.504c.96 0 1.71.323 2.248.968.539.645.808 1.533.808 2.664zm-1.04-.144c0-.821-.176-1.45-.528-1.888-.352-.437-.843-.656-1.472-.656-.576 0-1.088.219-1.536.656-.448.437-.715 1.067-.8 1.888h4.336zm5.584 8.08c-.97 0-1.747-.187-2.328-.56-.581-.373-.872-.885-.872-1.536 0-.33.099-.65.296-.96.197-.31.477-.587.84-.832v-.064a1.52 1.52 0 0 1-.496-.512 1.434 1.434 0 0 1-.192-.752c0-.299.083-.573.248-.824.165-.25.365-.456.6-.616v-.064a2.787 2.787 0 0 1-.704-.88 2.525 2.525 0 0 1-.288-1.2c0-.544.128-1.027.384-1.448a2.617 2.617 0 0 1 1.04-.976c.437-.23.917-.344 1.44-.344.352 0 .71.064 1.072.192h2.688v.912h-1.648c.203.192.368.437.496.736s.192.613.192.944c0 .533-.123 1.005-.368 1.416-.245.41-.581.728-1.008.952a3.016 3.016 0 0 1-1.424.336 2.61 2.61 0 0 1-1.184-.272c-.17.139-.301.28-.392.424a.988.988 0 0 0-.136.536c0 .277.104.493.312.648.208.155.563.232 1.064.232h1.552c.907 0 1.579.15 2.016.448.437.299.656.763.656 1.392 0 .47-.16.91-.48 1.32-.32.41-.773.739-1.36.984-.587.245-1.259.368-2.016.368zm-.032-6.88c.48 0 .888-.179 1.224-.536.336-.357.504-.819.504-1.384 0-.576-.165-1.037-.496-1.384a1.634 1.634 0 0 0-1.232-.52c-.49 0-.904.173-1.24.52-.336.347-.504.808-.504 1.384 0 .565.168 1.027.504 1.384.336.357.75.536 1.24.536zm.192 6.048c.49 0 .93-.077 1.32-.232.39-.155.69-.363.904-.624.213-.261.32-.536.32-.824 0-.363-.133-.621-.4-.776-.267-.155-.672-.232-1.216-.232h-1.424c-.33 0-.661-.043-.992-.128-.565.395-.848.859-.848 1.392 0 .437.208.784.624 1.04.416.256.987.384 1.712.384zm5.248-10.544h.96l.096 1.424h.048c.267-.501.592-.896.976-1.184.384-.288.795-.432 1.232-.432.31 0 .576.053.8.16l-.224 1.024a2.543 2.543 0 0 0-.736-.128c-.363 0-.723.15-1.08.448-.357.299-.664.763-.92 1.392V100h-1.152v-7.76zm7.2 7.952c-.661 0-1.205-.192-1.632-.576-.427-.384-.64-.923-.64-1.616 0-.843.384-1.49 1.152-1.944.768-.453 1.995-.77 3.68-.952 0-.608-.125-1.107-.376-1.496-.25-.39-.68-.584-1.288-.584-.736 0-1.52.283-2.352.848l-.464-.8c1.024-.683 2.027-1.024 3.008-1.024.896 0 1.557.28 1.984.84.427.56.64 1.33.64 2.312v4.8H307l-.096-.944h-.048c-.917.757-1.787 1.136-2.608 1.136zm.304-.944c.373 0 .739-.088 1.096-.264.357-.176.744-.45 1.16-.824v-2.272c-1.333.16-2.28.405-2.84.736-.56.33-.84.768-.84 1.312 0 .437.133.765.4.984.267.219.608.328 1.024.328zm8.304.944c-.768 0-1.317-.219-1.648-.656-.33-.437-.496-1.061-.496-1.872V93.2h-1.168v-.88l1.216-.08.144-2.192h.976v2.192h2.128v.96h-2.128v4.496c0 .512.093.896.28 1.152.187.256.504.384.952.384.224 0 .523-.07.896-.208l.24.88c-.576.192-1.04.288-1.392.288zm8.864-4.512c0 .277-.016.512-.048.704h-5.36c.053.907.333 1.61.84 2.112.507.501 1.128.752 1.864.752.683 0 1.339-.208 1.968-.624l.432.768c-.384.245-.779.44-1.184.584a4.042 4.042 0 0 1-1.36.216 3.643 3.643 0 0 1-1.864-.488c-.56-.325-1.003-.797-1.328-1.416-.325-.619-.488-1.339-.488-2.16 0-.81.163-1.525.488-2.144.325-.619.755-1.096 1.288-1.432a3.13 3.13 0 0 1 1.696-.504c.96 0 1.71.323 2.248.968.539.645.808 1.533.808 2.664zm-1.04-.144c0-.821-.176-1.45-.528-1.888-.352-.437-.843-.656-1.472-.656-.576 0-1.088.219-1.536.656-.448.437-.715 1.067-.8 1.888h4.336zm5.6 4.656c-.981 0-1.757-.357-2.328-1.072-.57-.715-.856-1.712-.856-2.992 0-.81.155-1.525.464-2.144.31-.619.723-1.096 1.24-1.432a3.013 3.013 0 0 1 1.672-.504c.416 0 .79.075 1.12.224.33.15.693.379 1.088.688l-.048-1.344v-3.04h1.152V100h-.96l-.096-.944h-.048c-.33.341-.701.616-1.112.824-.41.208-.84.312-1.288.312zm.256-.992c.373 0 .728-.09 1.064-.272.336-.181.68-.459 1.032-.832v-4.208c-.341-.299-.672-.515-.992-.648-.32-.133-.65-.2-.992-.2-.437 0-.835.133-1.192.4s-.64.635-.848 1.104a3.87 3.87 0 0 0-.312 1.584c0 .96.195 1.712.584 2.256.39.544.941.816 1.656.816zM110.248 121l-2.608-4.544h-1.984V121h-1.184v-10.512h3.216c2.41 0 3.616.97 3.616 2.912 0 .8-.216 1.45-.648 1.952-.432.501-1.032.832-1.8.992l2.736 4.656h-1.344zm-4.592-5.504h1.84c.853 0 1.504-.176 1.952-.528.448-.352.672-.875.672-1.568 0-.693-.219-1.192-.656-1.496-.437-.304-1.093-.456-1.968-.456h-1.84v4.048zm13.632 1.184c0 .277-.016.512-.048.704h-5.36c.053.907.333 1.61.84 2.112.507.501 1.128.752 1.864.752.683 0 1.339-.208 1.968-.624l.432.768c-.384.245-.779.44-1.184.584a4.042 4.042 0 0 1-1.36.216 3.643 3.643 0 0 1-1.864-.488c-.56-.325-1.003-.797-1.328-1.416-.325-.619-.488-1.339-.488-2.16 0-.81.163-1.525.488-2.144.325-.619.755-1.096 1.288-1.432a3.13 3.13 0 0 1 1.696-.504c.96 0 1.71.323 2.248.968.539.645.808 1.533.808 2.664zm-1.04-.144c0-.821-.176-1.45-.528-1.888-.352-.437-.843-.656-1.472-.656-.576 0-1.088.219-1.536.656-.448.437-.715 1.067-.8 1.888h4.336zm2.992-3.296h.96l.096 1.152h.048c.427-.427.845-.757 1.256-.992.41-.235.861-.352 1.352-.352.81 0 1.408.253 1.792.76.384.507.576 1.261.576 2.264V121h-1.168v-4.784c0-.747-.12-1.29-.36-1.632-.24-.341-.632-.512-1.176-.512a2.06 2.06 0 0 0-1.072.296c-.33.197-.715.515-1.152.952V121h-1.152v-7.76zm14.608 3.44c0 .277-.016.512-.048.704h-5.36c.053.907.333 1.61.84 2.112.507.501 1.128.752 1.864.752.683 0 1.339-.208 1.968-.624l.432.768c-.384.245-.779.44-1.184.584a4.042 4.042 0 0 1-1.36.216 3.643 3.643 0 0 1-1.864-.488c-.56-.325-1.003-.797-1.328-1.416-.325-.619-.488-1.339-.488-2.16 0-.81.163-1.525.488-2.144.325-.619.755-1.096 1.288-1.432a3.13 3.13 0 0 1 1.696-.504c.96 0 1.71.323 2.248.968.539.645.808 1.533.808 2.664zm-1.04-.144c0-.821-.176-1.45-.528-1.888-.352-.437-.843-.656-1.472-.656-.576 0-1.088.219-1.536.656-.448.437-.715 1.067-.8 1.888h4.336zm2.016-3.296h1.2l1.216 4.624.144.688c.15.64.256 1.125.32 1.456h.064c.203-.832.384-1.547.544-2.144l1.248-4.624h1.168l1.264 4.624.544 2.144h.064l.512-2.144 1.184-4.624h1.12l-2.112 7.76h-1.44l-1.184-4.336-.304-1.264a107.96 107.96 0 0 1-.224-.96h-.064c-.235 1.056-.421 1.808-.56 2.256L140.376 121h-1.36l-2.192-7.76zm14.096 7.952c-.661 0-1.205-.192-1.632-.576-.427-.384-.64-.923-.64-1.616 0-.843.384-1.49 1.152-1.944.768-.453 1.995-.77 3.68-.952 0-.608-.125-1.107-.376-1.496-.25-.39-.68-.584-1.288-.584-.736 0-1.52.283-2.352.848l-.464-.8c1.024-.683 2.027-1.024 3.008-1.024.896 0 1.557.28 1.984.84.427.56.64 1.33.64 2.312v4.8h-.96l-.096-.944h-.048c-.917.757-1.787 1.136-2.608 1.136zm.304-.944c.373 0 .739-.088 1.096-.264.357-.176.744-.45 1.16-.824v-2.272c-1.333.16-2.28.405-2.84.736-.56.33-.84.768-.84 1.312 0 .437.133.765.4.984.267.219.608.328 1.024.328zm9.28.944c-.363 0-.741-.088-1.136-.264a4.17 4.17 0 0 1-1.104-.728h-.048l-.112.8h-.928v-11.424h1.152v3.168l-.032 1.424c.864-.747 1.696-1.12 2.496-1.12.992 0 1.752.355 2.28 1.064.528.71.792 1.672.792 2.888 0 .853-.155 1.597-.464 2.232-.31.635-.72 1.12-1.232 1.456a2.974 2.974 0 0 1-1.664.504zm-.192-.992c.448 0 .85-.13 1.208-.392.357-.261.637-.632.84-1.112.203-.48.304-1.04.304-1.68 0-.928-.173-1.656-.52-2.184-.347-.528-.888-.792-1.624-.792-.661 0-1.392.373-2.192 1.12v4.192c.341.288.685.501 1.032.64s.664.208.952.208zm6.944.992c-.437 0-.757-.136-.96-.408-.203-.272-.304-.675-.304-1.208v-10h1.152v10.096c0 .181.035.317.104.408a.32.32 0 0 0 .264.136c.085 0 .181-.01.288-.032l.16.896a2.031 2.031 0 0 1-.704.112zm8.656-4.512c0 .277-.016.512-.048.704h-5.36c.053.907.333 1.61.84 2.112.507.501 1.128.752 1.864.752.683 0 1.339-.208 1.968-.624l.432.768c-.384.245-.779.44-1.184.584a4.042 4.042 0 0 1-1.36.216 3.643 3.643 0 0 1-1.864-.488c-.56-.325-1.003-.797-1.328-1.416-.325-.619-.488-1.339-.488-2.16 0-.81.163-1.525.488-2.144.325-.619.755-1.096 1.288-1.432a3.13 3.13 0 0 1 1.696-.504c.96 0 1.71.323 2.248.968.539.645.808 1.533.808 2.664zm-1.04-.144c0-.821-.176-1.45-.528-1.888-.352-.437-.843-.656-1.472-.656-.576 0-1.088.219-1.536.656-.448.437-.715 1.067-.8 1.888h4.336zm6.304-6.048h5.968v1.008h-4.784v3.472h4.032v.992h-4.032v4.032h4.944V121h-6.128v-10.512zm9.536 10.704c-.437 0-.757-.136-.96-.408-.203-.272-.304-.675-.304-1.208v-10h1.152v10.096c0 .181.035.317.104.408a.32.32 0 0 0 .264.136c.085 0 .181-.01.288-.032l.16.896a2.031 2.031 0 0 1-.704.112zm8.656-4.512c0 .277-.016.512-.048.704h-5.36c.053.907.333 1.61.84 2.112.507.501 1.128.752 1.864.752.683 0 1.339-.208 1.968-.624l.432.768c-.384.245-.779.44-1.184.584a4.042 4.042 0 0 1-1.36.216 3.643 3.643 0 0 1-1.864-.488c-.56-.325-1.003-.797-1.328-1.416-.325-.619-.488-1.339-.488-2.16 0-.81.163-1.525.488-2.144.325-.619.755-1.096 1.288-1.432a3.13 3.13 0 0 1 1.696-.504c.96 0 1.71.323 2.248.968.539.645.808 1.533.808 2.664zm-1.04-.144c0-.821-.176-1.45-.528-1.888-.352-.437-.843-.656-1.472-.656-.576 0-1.088.219-1.536.656-.448.437-.715 1.067-.8 1.888h4.336zm6 4.656a3.558 3.558 0 0 1-1.848-.488 3.398 3.398 0 0 1-1.296-1.4c-.315-.608-.472-1.333-.472-2.176 0-.832.168-1.557.504-2.176a3.54 3.54 0 0 1 1.352-1.416 3.626 3.626 0 0 1 1.84-.488c.843 0 1.595.31 2.256.928l-.608.768a3.192 3.192 0 0 0-.768-.536 1.9 1.9 0 0 0-.832-.184c-.48 0-.912.13-1.296.392a2.635 2.635 0 0 0-.904 1.096c-.219.47-.328 1.008-.328 1.616 0 .928.23 1.675.688 2.24.459.565 1.061.848 1.808.848.672 0 1.301-.267 1.888-.8l.512.784c-.352.31-.741.552-1.168.728a3.45 3.45 0 0 1-1.328.264zm6.608 0c-.768 0-1.317-.219-1.648-.656-.33-.437-.496-1.061-.496-1.872V114.2h-1.168v-.88l1.216-.08.144-2.192h.976v2.192h2.128v.96h-2.128v4.496c0 .512.093.896.28 1.152.187.256.504.384.952.384.224 0 .523-.07.896-.208l.24.88c-.576.192-1.04.288-1.392.288zm2.944-7.952h.96l.096 1.424h.048c.267-.501.592-.896.976-1.184.384-.288.795-.432 1.232-.432.31 0 .576.053.8.16l-.224 1.024a2.543 2.543 0 0 0-.736-.128c-.363 0-.723.15-1.08.448-.357.299-.664.763-.92 1.392V121h-1.152v-7.76zm5.44 0h1.152V121h-1.152v-7.76zm.592-1.664a.78.78 0 0 1-.576-.224c-.15-.15-.224-.347-.224-.592 0-.235.075-.424.224-.568a.795.795 0 0 1 .576-.216c.235 0 .427.072.576.216a.75.75 0 0 1 .224.568c0 .245-.075.443-.224.592a.78.78 0 0 1-.576.224zm6.288 9.616a3.558 3.558 0 0 1-1.848-.488 3.398 3.398 0 0 1-1.296-1.4c-.315-.608-.472-1.333-.472-2.176 0-.832.168-1.557.504-2.176a3.54 3.54 0 0 1 1.352-1.416 3.626 3.626 0 0 1 1.84-.488c.843 0 1.595.31 2.256.928l-.608.768a3.192 3.192 0 0 0-.768-.536 1.9 1.9 0 0 0-.832-.184c-.48 0-.912.13-1.296.392a2.635 2.635 0 0 0-.904 1.096c-.219.47-.328 1.008-.328 1.616 0 .928.23 1.675.688 2.24.459.565 1.061.848 1.808.848.672 0 1.301-.267 1.888-.8l.512.784c-.352.31-.741.552-1.168.728a3.45 3.45 0 0 1-1.328.264zm4.256-7.952h1.152V121h-1.152v-7.76zm.592-1.664a.78.78 0 0 1-.576-.224c-.15-.15-.224-.347-.224-.592 0-.235.075-.424.224-.568a.795.795 0 0 1 .576-.216c.235 0 .427.072.576.216a.75.75 0 0 1 .224.568c0 .245-.075.443-.224.592a.78.78 0 0 1-.576.224zm5.632 9.616c-.768 0-1.317-.219-1.648-.656-.33-.437-.496-1.061-.496-1.872V114.2h-1.168v-.88l1.216-.08.144-2.192h.976v2.192h2.128v.96h-2.128v4.496c0 .512.093.896.28 1.152.187.256.504.384.952.384.224 0 .523-.07.896-.208l.24.88c-.576.192-1.04.288-1.392.288zm2.96 3.2c-.32 0-.613-.053-.88-.16l.224-.944c.213.085.416.128.608.128.427 0 .79-.16 1.088-.48.299-.32.539-.752.72-1.296l.192-.592-3.136-7.808h1.2l1.664 4.448.768 2.176h.064c.15-.448.304-.939.464-1.472l.208-.704 1.456-4.448h1.136l-2.944 8.48c-.299.832-.67 1.485-1.112 1.96-.443.475-1.016.712-1.72.712zm14.688-3.2c-.917 0-1.73-.219-2.44-.656-.71-.437-1.261-1.067-1.656-1.888s-.592-1.787-.592-2.896c0-1.11.203-2.075.608-2.896.405-.821.97-1.453 1.696-1.896.725-.443 1.552-.664 2.48-.664 1.163 0 2.16.427 2.992 1.28l-.656.784c-.64-.683-1.408-1.024-2.304-1.024-.725 0-1.357.179-1.896.536-.539.357-.955.864-1.248 1.52-.293.656-.44 1.432-.44 2.328 0 1.365.315 2.445.944 3.24.63.795 1.504 1.192 2.624 1.192.395 0 .773-.061 1.136-.184.363-.123.656-.285.88-.488v-2.864h-2.304v-.992h3.392v4.352c-.352.373-.805.67-1.36.888a5.022 5.022 0 0 1-1.856.328zm11.584-4.512c0 .277-.016.512-.048.704h-5.36c.053.907.333 1.61.84 2.112.507.501 1.128.752 1.864.752.683 0 1.339-.208 1.968-.624l.432.768c-.384.245-.779.44-1.184.584a4.042 4.042 0 0 1-1.36.216 3.643 3.643 0 0 1-1.864-.488c-.56-.325-1.003-.797-1.328-1.416-.325-.619-.488-1.339-.488-2.16 0-.81.163-1.525.488-2.144.325-.619.755-1.096 1.288-1.432a3.13 3.13 0 0 1 1.696-.504c.96 0 1.71.323 2.248.968.539.645.808 1.533.808 2.664zm-1.04-.144c0-.821-.176-1.45-.528-1.888-.352-.437-.843-.656-1.472-.656-.576 0-1.088.219-1.536.656-.448.437-.715 1.067-.8 1.888h4.336zm2.992-3.296h.96l.096 1.152h.048c.427-.427.845-.757 1.256-.992.41-.235.861-.352 1.352-.352.81 0 1.408.253 1.792.76.384.507.576 1.261.576 2.264V121h-1.168v-4.784c0-.747-.12-1.29-.36-1.632-.24-.341-.632-.512-1.176-.512a2.06 2.06 0 0 0-1.072.296c-.33.197-.715.515-1.152.952V121h-1.152v-7.76zm14.608 3.44c0 .277-.016.512-.048.704h-5.36c.053.907.333 1.61.84 2.112.507.501 1.128.752 1.864.752.683 0 1.339-.208 1.968-.624l.432.768c-.384.245-.779.44-1.184.584a4.042 4.042 0 0 1-1.36.216 3.643 3.643 0 0 1-1.864-.488c-.56-.325-1.003-.797-1.328-1.416-.325-.619-.488-1.339-.488-2.16 0-.81.163-1.525.488-2.144.325-.619.755-1.096 1.288-1.432a3.13 3.13 0 0 1 1.696-.504c.96 0 1.71.323 2.248.968.539.645.808 1.533.808 2.664zm-1.04-.144c0-.821-.176-1.45-.528-1.888-.352-.437-.843-.656-1.472-.656-.576 0-1.088.219-1.536.656-.448.437-.715 1.067-.8 1.888h4.336zm2.992-3.296h.96l.096 1.424h.048c.267-.501.592-.896.976-1.184.384-.288.795-.432 1.232-.432.31 0 .576.053.8.16l-.224 1.024a2.543 2.543 0 0 0-.736-.128c-.363 0-.723.15-1.08.448-.357.299-.664.763-.92 1.392V121h-1.152v-7.76zm7.2 7.952c-.661 0-1.205-.192-1.632-.576-.427-.384-.64-.923-.64-1.616 0-.843.384-1.49 1.152-1.944.768-.453 1.995-.77 3.68-.952 0-.608-.125-1.107-.376-1.496-.25-.39-.68-.584-1.288-.584-.736 0-1.52.283-2.352.848l-.464-.8c1.024-.683 2.027-1.024 3.008-1.024.896 0 1.557.28 1.984.84.427.56.64 1.33.64 2.312v4.8h-.96l-.096-.944h-.048c-.917.757-1.787 1.136-2.608 1.136zm.304-.944c.373 0 .739-.088 1.096-.264.357-.176.744-.45 1.16-.824v-2.272c-1.333.16-2.28.405-2.84.736-.56.33-.84.768-.84 1.312 0 .437.133.765.4.984.267.219.608.328 1.024.328zm8.304.944c-.768 0-1.317-.219-1.648-.656-.33-.437-.496-1.061-.496-1.872V114.2h-1.168v-.88l1.216-.08.144-2.192h.976v2.192h2.128v.96h-2.128v4.496c0 .512.093.896.28 1.152.187.256.504.384.952.384.224 0 .523-.07.896-.208l.24.88c-.576.192-1.04.288-1.392.288zm2.944-7.952h1.152V121h-1.152v-7.76zm.592-1.664a.78.78 0 0 1-.576-.224c-.15-.15-.224-.347-.224-.592 0-.235.075-.424.224-.568a.795.795 0 0 1 .576-.216c.235 0 .427.072.576.216a.75.75 0 0 1 .224.568c0 .245-.075.443-.224.592a.78.78 0 0 1-.576.224zm6.24 9.616a3.4 3.4 0 0 1-1.776-.488c-.544-.325-.979-.795-1.304-1.408-.325-.613-.488-1.336-.488-2.168 0-.832.163-1.557.488-2.176.325-.619.76-1.09 1.304-1.416a3.398 3.398 0 0 1 1.776-.488 3.4 3.4 0 0 1 1.776.488c.544.325.979.797 1.304 1.416.325.619.488 1.344.488 2.176 0 .832-.163 1.555-.488 2.168-.325.613-.76 1.083-1.304 1.408a3.398 3.398 0 0 1-1.776.488zm0-.976c.459 0 .867-.128 1.224-.384s.637-.619.84-1.088c.203-.47.304-1.008.304-1.616 0-.608-.101-1.147-.304-1.616-.203-.47-.483-.835-.84-1.096a2.02 2.02 0 0 0-1.224-.392c-.459 0-.867.13-1.224.392-.357.261-.635.627-.832 1.096-.197.47-.296 1.008-.296 1.616 0 .928.219 1.675.656 2.24.437.565 1.003.848 1.696.848zm5.68-6.976h.96l.096 1.152h.048c.427-.427.845-.757 1.256-.992.41-.235.861-.352 1.352-.352.81 0 1.408.253 1.792.76.384.507.576 1.261.576 2.264V121H320.6v-4.784c0-.747-.12-1.29-.36-1.632-.24-.341-.632-.512-1.176-.512a2.06 2.06 0 0 0-1.072.296c-.33.197-.715.515-1.152.952V121h-1.152v-7.76zM117.26 78.004c-2.607 0-4.991-.575-7.153-1.725-2.162-1.15-3.887-2.875-5.175-5.175-1.288-2.3-1.932-5.09-1.932-8.372 0-3.22.667-6.018 2.001-8.395 1.334-2.377 3.097-4.194 5.29-5.451 2.193-1.257 4.577-1.886 7.153-1.886 1.84 0 3.557.368 5.152 1.104 1.595.736 2.975 1.687 4.14 2.852l-4.14 5.06c-.828-.736-1.625-1.288-2.392-1.656-.767-.368-1.625-.552-2.576-.552-1.165 0-2.246.353-3.243 1.058-.997.705-1.794 1.71-2.392 3.013-.598 1.303-.897 2.829-.897 4.577 0 2.76.583 4.907 1.748 6.44 1.165 1.533 2.73 2.3 4.692 2.3 2.024 0 3.833-.859 5.428-2.576l4.14 4.968c-1.257 1.472-2.722 2.576-4.393 3.312-1.671.736-3.488 1.104-5.451 1.104zm13.984-30.452h7.912v29.9h-7.912v-29.9zm30.636 29.9l-5.152-10.028h-3.036v10.028h-7.912v-29.9h11.316c3.588 0 6.478.744 8.671 2.231 2.193 1.487 3.289 3.964 3.289 7.429 0 2.055-.43 3.803-1.288 5.244-.859 1.441-2.04 2.576-3.542 3.404l6.486 11.592h-8.832zm-8.188-16.284h2.852c1.564 0 2.752-.337 3.565-1.012.813-.675 1.219-1.656 1.219-2.944 0-1.257-.391-2.139-1.173-2.645-.782-.506-1.986-.759-3.611-.759h-2.852v7.36zm21.068-13.616h19.32v6.624h-11.408v4.692h9.752v6.624h-9.752v5.336h11.868v6.624h-19.78v-29.9zm39.376 30.452c-2.852 0-5.42-.575-7.705-1.725-2.285-1.15-4.086-2.875-5.405-5.175s-1.978-5.09-1.978-8.372c0-3.22.675-6.018 2.024-8.395 1.35-2.377 3.159-4.194 5.428-5.451 2.27-1.257 4.753-1.886 7.452-1.886 2.055 0 3.902.368 5.543 1.104 1.64.736 3.044 1.687 4.209 2.852l-4.14 5.06c-.828-.736-1.648-1.288-2.461-1.656-.813-.368-1.771-.552-2.875-.552-2.085 0-3.787.774-5.106 2.323s-1.978 3.657-1.978 6.325c0 2.852.644 5.022 1.932 6.509 1.288 1.487 3.25 2.231 5.888 2.231.981 0 1.748-.184 2.3-.552v-4.14h-4.416v-6.44h11.408v14.26c-1.104 1.073-2.56 1.955-4.37 2.645s-3.726 1.035-5.75 1.035zm-128.08-8.929a2.07 2.07 0 0 0-2.8.94c-2.902 5.948-9.018 9.914-15.549 9.914-8.5 0-15.549-6.157-17-14.298l4.458-.417-7.05-7.828L42 66.362l4.561-.418C48.219 76.172 57.031 84 67.707 84c8.19 0 15.756-4.801 19.28-12.211.519-1.044.104-2.296-.933-2.714h.001zm2.694-10.124C87.092 48.724 78.28 41 67.707 41c-8.189 0-15.444 4.592-19.176 11.898a2.098 2.098 0 0 0 .933 2.818 2.07 2.07 0 0 0 2.799-.94c2.902-5.949 8.914-9.602 15.444-9.602 8.397 0 15.445 6.158 17 14.195l-3.628.313 6.53 7.41L93 58.638l-4.25.313z"/><path fill="#EEA00A" d="M69.997 50.889l-9.252 10.79c-.617.72-.103 1.953.925 1.953h5.346l-3.804 9.352c-.205.514.411.822.823.514l10.178-12.23c.72-.822.102-2.158-1.028-2.158h-4.73l2.879-7.4c.206-.822-.822-1.438-1.336-.822z"/></g></svg>