<svg xmlns="http://www.w3.org/2000/svg" xmlns:xlink="http://www.w3.org/1999/xlink" width="51" height="43"><defs><path id="a" d="M9.997.889L.745 11.679c-.617.72-.103 1.953.925 1.953h5.346l-3.804 9.352c-.205.514.411.822.823.514l10.178-12.23c.72-.822.102-2.158-1.028-2.158h-4.73l2.879-7.4C11.54.889 10.512.273 9.998.889z"/></defs><g fill="none" fill-rule="evenodd"><path fill="#EEA00A" d="M44.055 28.075a2.07 2.07 0 0 0-2.799.94c-2.902 5.948-9.018 9.914-15.549 9.914-8.5 0-15.549-6.157-17-14.298l4.458-.417-7.05-7.828L0 25.362l4.561-.418C6.219 35.172 15.031 43 25.707 43c8.19 0 15.756-4.801 19.28-12.211.519-1.044.104-2.296-.933-2.714h.001zm2.695-10.124C45.092 7.724 36.28 0 25.707 0 17.518 0 10.263 4.592 6.531 11.898a2.098 2.098 0 0 0 .933 2.818 2.07 2.07 0 0 0 2.799-.94c2.902-5.949 8.914-9.602 15.444-9.602 8.397 0 15.445 6.158 17 14.195l-3.628.313 6.53 7.41L51 17.638l-4.25.313z"/><g transform="translate(18 9)"><mask id="b" fill="#fff"><use xlink:href="#a"/></mask><g fill="#0C4D6C" mask="url(#b)"><path d="M0 0h15v24H0z"/></g></g></g></svg>